  0
SECTION
  2
HEADER
  9
$ACADVER
  1
AC1014
  9
$HANDSEED
  5
FFFF
  9
$MEASUREMENT
 70
     1
  0
ENDSEC
  0
SECTION
  2
TABLES
  0
TABLE
  2
VPORT
  5
8
330
0
100
AcDbSymbolTable
 70
     4
  0
VPORT
  5
2E
330
8
100
AcDbSymbolTableRecord
100
AcDbViewportTableRecord
  2
*ACTIVE
 70
     0
 10
0.0
 20
0.0
 11
1.0
 21
1.0
 12
210.0
 22
148.5
 13
0.0
 23
0.0
 14
10.0
 24
10.0
 15
10.0
 25
10.0
 16
0.0
 26
0.0
 36
1.0
 17
0.0
 27
0.0
 37
0.0
 40
341.0
 41
1.24
 42
50.0
 43
0.0
 44
0.0
 50
0.0
 51
0.0
 71
     0
 72
   100
 73
     1
 74
     3
 75
     0
 76
     0
 77
     0
 78
     0
  0
ENDTAB
  0
TABLE
  2
LTYPE
  5
5
330
0
100
AcDbSymbolTable
 70
     1
  0
LTYPE
  5
14
330
5
100
AcDbSymbolTableRecord
100
AcDbLinetypeTableRecord
  2
BYBLOCK
 70
     0
  3

 72
    65
 73
     0
 40
0.0
  0
LTYPE
  5
15
330
5
100
AcDbSymbolTableRecord
100
AcDbLinetypeTableRecord
  2
BYLAYER
 70
     0
  3

 72
    65
 73
     0
 40
0.0
  0
LTYPE
  5
16
330
5
100
AcDbSymbolTableRecord
100
AcDbLinetypeTableRecord
  2
CONTINUOUS
 70
     0
  3
Solid line
 72
    65
 73
     0
 40
0.0
  0
ENDTAB
  0
TABLE
  2
LAYER
  5
2
100
AcDbSymbolTable
 70
2
  0
LAYER
  5
50
100
AcDbSymbolTableRecord
100
AcDbLayerTableRecord
  2
0
 70
0
  6
CONTINUOUS
  0
LAYER
  5
51
100
AcDbSymbolTableRecord
100
AcDbLayerTableRecord
  2
Layer_1
 70
0
  6
CONTINUOUS
  0
ENDTAB
  0
TABLE
  2
STYLE
  5
3
330
0
100
AcDbSymbolTable
 70
     1
  0
STYLE
  5
11
330
3
100
AcDbSymbolTableRecord
100
AcDbTextStyleTableRecord
  2
STANDARD
 70
     0
 40
0.0
 41
1.0
 50
0.0
 71
     0
 42
2.5
  3
txt
  4

  0
ENDTAB
  0
TABLE
  2
VIEW
  5
6
330
0
100
AcDbSymbolTable
 70
     0
  0
ENDTAB
  0
TABLE
  2
UCS
  5
7
330
0
100
AcDbSymbolTable
 70
     0
  0
ENDTAB
  0
TABLE
  2
APPID
  5
9
330
0
100
AcDbSymbolTable
 70
     2
  0
APPID
  5
12
330
9
100
AcDbSymbolTableRecord
100
AcDbRegAppTableRecord
  2
ACAD
 70
     0
  0
ENDTAB
  0
TABLE
  2
DIMSTYLE
  5
A
330
0
100
AcDbSymbolTable
 70
     1
  0
DIMSTYLE
105
27
330
A
100
AcDbSymbolTableRecord
100
AcDbDimStyleTableRecord
  2
ISO-25
 70
     0
  3

  4

  5

  6

  7

 40
1.0
 41
2.5
 42
0.625
 43
3.75
 44
1.25
 45
0.0
 46
0.0
 47
0.0
 48
0.0
140
2.5
141
2.5
142
0.0
143
0.03937007874016
144
1.0
145
0.0
146
1.0
147
0.625
 71
     0
 72
     0
 73
     0
 74
     0
 75
     0
 76
     0
 77
     1
 78
     8
170
     0
171
     3
172
     1
173
     0
174
     0
175
     0
176
     0
177
     0
178
     0
270
     2
271
     2
272
     2
273
     2
274
     3
340
11
275
     0
280
     0
281
     0
282
     0
283
     0
284
     8
285
     0
286
     0
287
     3
288
     0
  0
ENDTAB
  0
TABLE
  2
BLOCK_RECORD
  5
1
330
0
100
AcDbSymbolTable
 70
     1
  0
BLOCK_RECORD
  5
1F
330
1
100
AcDbSymbolTableRecord
100
AcDbBlockTableRecord
  2
*MODEL_SPACE
  0
BLOCK_RECORD
  5
1B
330
1
100
AcDbSymbolTableRecord
100
AcDbBlockTableRecord
  2
*PAPER_SPACE
  0
ENDTAB
  0
ENDSEC
  0
SECTION
  2
BLOCKS
  0
BLOCK
  5
20
330
1F
100
AcDbEntity
  8
0
100
AcDbBlockBegin
  2
*MODEL_SPACE
 70
     0
 10
0.0
 20
0.0
 30
0.0
  3
*MODEL_SPACE
  1

  0
ENDBLK
  5
21
330
1F
100
AcDbEntity
  8
0
100
AcDbBlockEnd
  0
BLOCK
  5
1C
330
1B
100
AcDbEntity
 67
     1
  8
0
100
AcDbBlockBegin
  2
*PAPER_SPACE
  1

  0
ENDBLK
  5
1D
330
1B
100
AcDbEntity
 67
     1
  8
0
100
AcDbBlockEnd
  0
ENDSEC
  0
SECTION
  2
ENTITIES
  0
SPLINE
  5
100
100
AcDbEntity
  8
Layer_1
 62
7
100
AcDbSpline
 70
8
 71
3
 72
8
 73
4
 74
0
 40
0
 40
0
 40
0
 40
0
 40
1
 40
1
 40
1
 40
1
 10
13.594635
 20
225.412213
 30
0.0
 10
13.594635
 20
224.560357
 30
0.0
 10
12.904069
 20
223.869792
 30
0.0
 10
12.052213
 20
223.869792
 30
0.0
  0
SPLINE
  5
101
100
AcDbEntity
  8
Layer_1
 62
7
100
AcDbSpline
 70
8
 71
3
 72
8
 73
4
 74
0
 40
0
 40
0
 40
0
 40
0
 40
1
 40
1
 40
1
 40
1
 10
12.052213
 20
223.869792
 30
0.0
 10
11.200358
 20
223.869792
 30
0.0
 10
10.509792
 20
224.560357
 30
0.0
 10
10.509791
 20
225.412213
 30
0.0
  0
SPLINE
  5
102
100
AcDbEntity
  8
Layer_1
 62
7
100
AcDbSpline
 70
8
 71
3
 72
8
 73
4
 74
0
 40
0
 40
0
 40
0
 40
0
 40
1
 40
1
 40
1
 40
1
 10
10.509791
 20
225.412213
 30
0.0
 10
10.509791
 20
225.821289
 30
0.0
 10
10.672295
 20
226.213610
 30
0.0
 10
10.961556
 20
226.502871
 30
0.0
  0
SPLINE
  5
103
100
AcDbEntity
  8
Layer_1
 62
7
100
AcDbSpline
 70
8
 71
3
 72
8
 73
4
 74
0
 40
0
 40
0
 40
0
 40
0
 40
1
 40
1
 40
1
 40
1
 10
10.961556
 20
226.502871
 30
0.0
 10
11.250816
 20
226.792131
 30
0.0
 10
11.643137
 20
226.954636
 30
0.0
 10
12.052213
 20
226.954636
 30
0.0
  0
SPLINE
  5
104
100
AcDbEntity
  8
Layer_1
 62
7
100
AcDbSpline
 70
8
 71
3
 72
8
 73
4
 74
0
 40
0
 40
0
 40
0
 40
0
 40
1
 40
1
 40
1
 40
1
 10
12.052213
 20
226.954636
 30
0.0
 10
12.461289
 20
226.954636
 30
0.0
 10
12.853611
 20
226.792131
 30
0.0
 10
13.142871
 20
226.502871
 30
0.0
  0
SPLINE
  5
105
100
AcDbEntity
  8
Layer_1
 62
7
100
AcDbSpline
 70
8
 71
3
 72
8
 73
4
 74
0
 40
0
 40
0
 40
0
 40
0
 40
1
 40
1
 40
1
 40
1
 10
13.142871
 20
226.502871
 30
0.0
 10
13.432131
 20
226.213610
 30
0.0
 10
13.594636
 20
225.821289
 30
0.0
 10
13.594635
 20
225.412213
 30
0.0
  0
LWPOLYLINE
  5
106
100
AcDbEntity
  8
Layer_1
 62
7
100
AcDbPolyline
 90
5
 70
1
 10
28.587768
 20
262.368592
 30
0.0
 10
37.451594
 20
262.368592
 30
0.0
 10
37.451594
 20
251.472768
 30
0.0
 10
28.587768
 20
251.472768
 30
0.0
 10
28.587768
 20
262.368592
 30
0.0
  0
SPLINE
  5
107
100
AcDbEntity
  8
Layer_1
 62
7
100
AcDbSpline
 70
8
 71
3
 72
8
 73
4
 74
0
 40
0
 40
0
 40
0
 40
0
 40
1
 40
1
 40
1
 40
1
 10
172.357421
 20
225.424994
 30
0.0
 10
172.357420
 20
224.573139
 30
0.0
 10
171.666855
 20
223.882574
 30
0.0
 10
170.815000
 20
223.882574
 30
0.0
  0
SPLINE
  5
108
100
AcDbEntity
  8
Layer_1
 62
7
100
AcDbSpline
 70
8
 71
3
 72
8
 73
4
 74
0
 40
0
 40
0
 40
0
 40
0
 40
1
 40
1
 40
1
 40
1
 10
170.815000
 20
223.882574
 30
0.0
 10
169.963145
 20
223.882574
 30
0.0
 10
169.272580
 20
224.573139
 30
0.0
 10
169.272579
 20
225.424994
 30
0.0
  0
SPLINE
  5
109
100
AcDbEntity
  8
Layer_1
 62
7
100
AcDbSpline
 70
8
 71
3
 72
8
 73
4
 74
0
 40
0
 40
0
 40
0
 40
0
 40
1
 40
1
 40
1
 40
1
 10
169.272579
 20
225.424994
 30
0.0
 10
169.272579
 20
225.834070
 30
0.0
 10
169.435083
 20
226.226391
 30
0.0
 10
169.724343
 20
226.515652
 30
0.0
  0
SPLINE
  5
10a
100
AcDbEntity
  8
Layer_1
 62
7
100
AcDbSpline
 70
8
 71
3
 72
8
 73
4
 74
0
 40
0
 40
0
 40
0
 40
0
 40
1
 40
1
 40
1
 40
1
 10
169.724343
 20
226.515652
 30
0.0
 10
170.013603
 20
226.804912
 30
0.0
 10
170.405924
 20
226.967417
 30
0.0
 10
170.815000
 20
226.967418
 30
0.0
  0
SPLINE
  5
10b
100
AcDbEntity
  8
Layer_1
 62
7
100
AcDbSpline
 70
8
 71
3
 72
8
 73
4
 74
0
 40
0
 40
0
 40
0
 40
0
 40
1
 40
1
 40
1
 40
1
 10
170.815000
 20
226.967418
 30
0.0
 10
171.224076
 20
226.967417
 30
0.0
 10
171.616397
 20
226.804912
 30
0.0
 10
171.905657
 20
226.515652
 30
0.0
  0
SPLINE
  5
10c
100
AcDbEntity
  8
Layer_1
 62
7
100
AcDbSpline
 70
8
 71
3
 72
8
 73
4
 74
0
 40
0
 40
0
 40
0
 40
0
 40
1
 40
1
 40
1
 40
1
 10
171.905657
 20
226.515652
 30
0.0
 10
172.194917
 20
226.226391
 30
0.0
 10
172.357421
 20
225.834070
 30
0.0
 10
172.357421
 20
225.424994
 30
0.0
  0
LWPOLYLINE
  5
10d
100
AcDbEntity
  8
Layer_1
 62
7
100
AcDbPolyline
 90
2
 70
1
 10
13.594635
 20
225.412213
 30
0.0
 10
13.594635
 20
225.412213
 30
0.0
  0
SPLINE
  5
10e
100
AcDbEntity
  8
Layer_1
 62
7
100
AcDbSpline
 70
8
 71
3
 72
8
 73
4
 74
0
 40
0
 40
0
 40
0
 40
0
 40
1
 40
1
 40
1
 40
1
 10
13.594635
 20
132.067227
 30
0.0
 10
13.594636
 20
131.658151
 30
0.0
 10
13.432131
 20
131.265829
 30
0.0
 10
13.142871
 20
130.976569
 30
0.0
  0
SPLINE
  5
10f
100
AcDbEntity
  8
Layer_1
 62
7
100
AcDbSpline
 70
8
 71
3
 72
8
 73
4
 74
0
 40
0
 40
0
 40
0
 40
0
 40
1
 40
1
 40
1
 40
1
 10
13.142871
 20
130.976569
 30
0.0
 10
12.853611
 20
130.687308
 30
0.0
 10
12.461289
 20
130.524803
 30
0.0
 10
12.052213
 20
130.524803
 30
0.0
  0
SPLINE
  5
110
100
AcDbEntity
  8
Layer_1
 62
7
100
AcDbSpline
 70
8
 71
3
 72
8
 73
4
 74
0
 40
0
 40
0
 40
0
 40
0
 40
1
 40
1
 40
1
 40
1
 10
12.052213
 20
130.524803
 30
0.0
 10
11.643137
 20
130.524803
 30
0.0
 10
11.250816
 20
130.687308
 30
0.0
 10
10.961556
 20
130.976569
 30
0.0
  0
SPLINE
  5
111
100
AcDbEntity
  8
Layer_1
 62
7
100
AcDbSpline
 70
8
 71
3
 72
8
 73
4
 74
0
 40
0
 40
0
 40
0
 40
0
 40
1
 40
1
 40
1
 40
1
 10
10.961556
 20
130.976569
 30
0.0
 10
10.672295
 20
131.265829
 30
0.0
 10
10.509791
 20
131.658151
 30
0.0
 10
10.509791
 20
132.067227
 30
0.0
  0
SPLINE
  5
112
100
AcDbEntity
  8
Layer_1
 62
7
100
AcDbSpline
 70
8
 71
3
 72
8
 73
4
 74
0
 40
0
 40
0
 40
0
 40
0
 40
1
 40
1
 40
1
 40
1
 10
10.509791
 20
132.067227
 30
0.0
 10
10.509792
 20
132.919082
 30
0.0
 10
11.200358
 20
133.609647
 30
0.0
 10
12.052213
 20
133.609647
 30
0.0
  0
SPLINE
  5
113
100
AcDbEntity
  8
Layer_1
 62
7
100
AcDbSpline
 70
8
 71
3
 72
8
 73
4
 74
0
 40
0
 40
0
 40
0
 40
0
 40
1
 40
1
 40
1
 40
1
 10
12.052213
 20
133.609647
 30
0.0
 10
12.904069
 20
133.609647
 30
0.0
 10
13.594635
 20
132.919082
 30
0.0
 10
13.594635
 20
132.067227
 30
0.0
  0
LWPOLYLINE
  5
114
100
AcDbEntity
  8
Layer_1
 62
7
100
AcDbPolyline
 90
2
 70
1
 10
172.357421
 20
225.424994
 30
0.0
 10
172.357421
 20
225.424994
 30
0.0
  0
SPLINE
  5
115
100
AcDbEntity
  8
Layer_1
 62
7
100
AcDbSpline
 70
8
 71
3
 72
8
 73
4
 74
0
 40
0
 40
0
 40
0
 40
0
 40
1
 40
1
 40
1
 40
1
 10
172.344642
 20
132.067227
 30
0.0
 10
172.344642
 20
131.658150
 30
0.0
 10
172.182137
 20
131.265829
 30
0.0
 10
171.892877
 20
130.976568
 30
0.0
  0
SPLINE
  5
116
100
AcDbEntity
  8
Layer_1
 62
7
100
AcDbSpline
 70
8
 71
3
 72
8
 73
4
 74
0
 40
0
 40
0
 40
0
 40
0
 40
1
 40
1
 40
1
 40
1
 10
171.892877
 20
130.976568
 30
0.0
 10
171.603616
 20
130.687308
 30
0.0
 10
171.211294
 20
130.524803
 30
0.0
 10
170.802218
 20
130.524803
 30
0.0
  0
SPLINE
  5
117
100
AcDbEntity
  8
Layer_1
 62
7
100
AcDbSpline
 70
8
 71
3
 72
8
 73
4
 74
0
 40
0
 40
0
 40
0
 40
0
 40
1
 40
1
 40
1
 40
1
 10
170.802218
 20
130.524803
 30
0.0
 10
170.393142
 20
130.524804
 30
0.0
 10
170.000821
 20
130.687309
 30
0.0
 10
169.711561
 20
130.976569
 30
0.0
  0
SPLINE
  5
118
100
AcDbEntity
  8
Layer_1
 62
7
100
AcDbSpline
 70
8
 71
3
 72
8
 73
4
 74
0
 40
0
 40
0
 40
0
 40
0
 40
1
 40
1
 40
1
 40
1
 10
169.711561
 20
130.976569
 30
0.0
 10
169.422301
 20
131.265830
 30
0.0
 10
169.259797
 20
131.658151
 30
0.0
 10
169.259798
 20
132.067227
 30
0.0
  0
SPLINE
  5
119
100
AcDbEntity
  8
Layer_1
 62
7
100
AcDbSpline
 70
8
 71
3
 72
8
 73
4
 74
0
 40
0
 40
0
 40
0
 40
0
 40
1
 40
1
 40
1
 40
1
 10
169.259798
 20
132.067227
 30
0.0
 10
169.259798
 20
132.919082
 30
0.0
 10
169.950363
 20
133.609647
 30
0.0
 10
170.802218
 20
133.609647
 30
0.0
  0
SPLINE
  5
11a
100
AcDbEntity
  8
Layer_1
 62
7
100
AcDbSpline
 70
8
 71
3
 72
8
 73
4
 74
0
 40
0
 40
0
 40
0
 40
0
 40
1
 40
1
 40
1
 40
1
 10
170.802218
 20
133.609647
 30
0.0
 10
171.211294
 20
133.609648
 30
0.0
 10
171.603615
 20
133.447143
 30
0.0
 10
171.892876
 20
133.157883
 30
0.0
  0
SPLINE
  5
11b
100
AcDbEntity
  8
Layer_1
 62
7
100
AcDbSpline
 70
8
 71
3
 72
8
 73
4
 74
0
 40
0
 40
0
 40
0
 40
0
 40
1
 40
1
 40
1
 40
1
 10
171.892876
 20
133.157883
 30
0.0
 10
172.182136
 20
132.868623
 30
0.0
 10
172.344641
 20
132.476302
 30
0.0
 10
172.344642
 20
132.067227
 30
0.0
  0
LWPOLYLINE
  5
11c
100
AcDbEntity
  8
Layer_1
 62
7
100
AcDbPolyline
 90
2
 70
1
 10
13.594635
 20
132.067227
 30
0.0
 10
13.594635
 20
132.067227
 30
0.0
  0
LWPOLYLINE
  5
11d
100
AcDbEntity
  8
Layer_1
 62
7
100
AcDbPolyline
 90
2
 70
1
 10
172.344642
 20
132.067227
 30
0.0
 10
172.344642
 20
132.067227
 30
0.0
  0
LWPOLYLINE
  5
11e
100
AcDbEntity
  8
Layer_1
 62
7
100
AcDbPolyline
 90
3
 70
0
 10
0.647768
 20
319.097731
 30
0.0
 10
0.647768
 20
314.464771
 30
0.0
 10
3.822768
 20
314.464771
 30
0.0
  0
LWPOLYLINE
  5
11f
100
AcDbEntity
  8
Layer_1
 62
7
100
AcDbPolyline
 90
2
 70
0
 10
3.822768
 20
319.097731
 30
0.0
 10
0.647768
 20
319.097731
 30
0.0
  0
LWPOLYLINE
  5
120
100
AcDbEntity
  8
Layer_1
 62
7
100
AcDbPolyline
 90
3
 70
0
 10
0.647768
 20
328.241731
 30
0.0
 10
0.647768
 20
323.608771
 30
0.0
 10
3.822768
 20
323.608771
 30
0.0
  0
LWPOLYLINE
  5
121
100
AcDbEntity
  8
Layer_1
 62
7
100
AcDbPolyline
 90
2
 70
0
 10
3.822768
 20
328.241731
 30
0.0
 10
0.647768
 20
328.241731
 30
0.0
  0
LWPOLYLINE
  5
122
100
AcDbEntity
  8
Layer_1
 62
7
100
AcDbPolyline
 90
2
 70
0
 10
11.686996
 20
332.813731
 30
0.0
 10
3.822768
 20
332.813731
 30
0.0
  0
LWPOLYLINE
  5
123
100
AcDbEntity
  8
Layer_1
 62
7
100
AcDbPolyline
 90
3
 70
0
 10
3.822768
 20
314.464771
 30
0.0
 10
3.822768
 20
309.892768
 30
0.0
 10
11.686996
 20
309.892768
 30
0.0
  0
LWPOLYLINE
  5
124
100
AcDbEntity
  8
Layer_1
 62
7
100
AcDbPolyline
 90
2
 70
0
 10
3.822768
 20
323.608771
 30
0.0
 10
3.822768
 20
319.097731
 30
0.0
  0
LWPOLYLINE
  5
125
100
AcDbEntity
  8
Layer_1
 62
7
100
AcDbPolyline
 90
2
 70
0
 10
3.822768
 20
332.813731
 30
0.0
 10
3.822768
 20
328.241731
 30
0.0
  0
LWPOLYLINE
  5
126
100
AcDbEntity
  8
Layer_1
 62
7
100
AcDbPolyline
 90
2
 70
0
 10
11.686996
 20
335.988731
 30
0.0
 10
11.686996
 20
332.813731
 30
0.0
  0
LWPOLYLINE
  5
127
100
AcDbEntity
  8
Layer_1
 62
7
100
AcDbPolyline
 90
2
 70
0
 10
19.612184
 20
335.988731
 30
0.0
 10
11.686996
 20
335.988731
 30
0.0
  0
LWPOLYLINE
  5
128
100
AcDbEntity
  8
Layer_1
 62
7
100
AcDbPolyline
 90
3
 70
0
 10
11.686996
 20
309.892768
 30
0.0
 10
11.686996
 20
306.717768
 30
0.0
 10
19.612184
 20
306.717768
 30
0.0
  0
LWPOLYLINE
  5
129
100
AcDbEntity
  8
Layer_1
 62
7
100
AcDbPolyline
 90
2
 70
0
 10
19.612184
 20
332.813731
 30
0.0
 10
19.612184
 20
335.988731
 30
0.0
  0
LWPOLYLINE
  5
12a
100
AcDbEntity
  8
Layer_1
 62
7
100
AcDbPolyline
 90
2
 70
0
 10
27.415452
 20
332.813731
 30
0.0
 10
19.612184
 20
332.813731
 30
0.0
  0
LWPOLYLINE
  5
12b
100
AcDbEntity
  8
Layer_1
 62
7
100
AcDbPolyline
 90
3
 70
0
 10
19.612184
 20
306.717768
 30
0.0
 10
19.612184
 20
309.892768
 30
0.0
 10
27.415452
 20
309.892768
 30
0.0
  0
LWPOLYLINE
  5
12c
100
AcDbEntity
  8
Layer_1
 62
7
100
AcDbPolyline
 90
2
 70
0
 10
27.415452
 20
335.988731
 30
0.0
 10
27.415452
 20
332.813731
 30
0.0
  0
LWPOLYLINE
  5
12d
100
AcDbEntity
  8
Layer_1
 62
7
100
AcDbPolyline
 90
2
 70
0
 10
35.340640
 20
335.988731
 30
0.0
 10
27.415452
 20
335.988731
 30
0.0
  0
LWPOLYLINE
  5
12e
100
AcDbEntity
  8
Layer_1
 62
7
100
AcDbPolyline
 90
3
 70
0
 10
27.415452
 20
309.892768
 30
0.0
 10
27.415452
 20
306.717768
 30
0.0
 10
35.340640
 20
306.717768
 30
0.0
  0
LWPOLYLINE
  5
12f
100
AcDbEntity
  8
Layer_1
 62
7
100
AcDbPolyline
 90
2
 70
0
 10
35.340640
 20
332.813731
 30
0.0
 10
35.340640
 20
335.988731
 30
0.0
  0
LWPOLYLINE
  5
130
100
AcDbEntity
  8
Layer_1
 62
7
100
AcDbPolyline
 90
2
 70
0
 10
43.143907
 20
332.813731
 30
0.0
 10
35.340640
 20
332.813731
 30
0.0
  0
LWPOLYLINE
  5
131
100
AcDbEntity
  8
Layer_1
 62
7
100
AcDbPolyline
 90
3
 70
0
 10
35.340640
 20
306.717768
 30
0.0
 10
35.340640
 20
309.892768
 30
0.0
 10
43.143907
 20
309.892768
 30
0.0
  0
LWPOLYLINE
  5
132
100
AcDbEntity
  8
Layer_1
 62
7
100
AcDbPolyline
 90
2
 70
0
 10
43.143907
 20
335.988731
 30
0.0
 10
43.143907
 20
332.813731
 30
0.0
  0
LWPOLYLINE
  5
133
100
AcDbEntity
  8
Layer_1
 62
7
100
AcDbPolyline
 90
2
 70
0
 10
51.069096
 20
335.988731
 30
0.0
 10
43.143907
 20
335.988731
 30
0.0
  0
LWPOLYLINE
  5
134
100
AcDbEntity
  8
Layer_1
 62
7
100
AcDbPolyline
 90
3
 70
0
 10
43.143907
 20
309.892768
 30
0.0
 10
43.143907
 20
306.717768
 30
0.0
 10
51.069096
 20
306.717768
 30
0.0
  0
LWPOLYLINE
  5
135
100
AcDbEntity
  8
Layer_1
 62
7
100
AcDbPolyline
 90
2
 70
0
 10
51.069096
 20
332.813731
 30
0.0
 10
51.069096
 20
335.988731
 30
0.0
  0
LWPOLYLINE
  5
136
100
AcDbEntity
  8
Layer_1
 62
7
100
AcDbPolyline
 90
2
 70
0
 10
58.872399
 20
332.813731
 30
0.0
 10
51.069096
 20
332.813731
 30
0.0
  0
LWPOLYLINE
  5
137
100
AcDbEntity
  8
Layer_1
 62
7
100
AcDbPolyline
 90
3
 70
0
 10
51.069096
 20
306.717768
 30
0.0
 10
51.069096
 20
309.892768
 30
0.0
 10
58.872399
 20
309.892768
 30
0.0
  0
LWPOLYLINE
  5
138
100
AcDbEntity
  8
Layer_1
 62
7
100
AcDbPolyline
 90
2
 70
0
 10
58.872399
 20
335.988731
 30
0.0
 10
58.872399
 20
332.813731
 30
0.0
  0
LWPOLYLINE
  5
139
100
AcDbEntity
  8
Layer_1
 62
7
100
AcDbPolyline
 90
2
 70
0
 10
66.797586
 20
335.988731
 30
0.0
 10
58.872399
 20
335.988731
 30
0.0
  0
LWPOLYLINE
  5
13a
100
AcDbEntity
  8
Layer_1
 62
7
100
AcDbPolyline
 90
3
 70
0
 10
58.872399
 20
309.892768
 30
0.0
 10
58.872399
 20
306.717768
 30
0.0
 10
66.797586
 20
306.717768
 30
0.0
  0
LWPOLYLINE
  5
13b
100
AcDbEntity
  8
Layer_1
 62
7
100
AcDbPolyline
 90
2
 70
0
 10
66.797586
 20
332.813731
 30
0.0
 10
66.797586
 20
335.988731
 30
0.0
  0
LWPOLYLINE
  5
13c
100
AcDbEntity
  8
Layer_1
 62
7
100
AcDbPolyline
 90
2
 70
0
 10
74.600856
 20
332.813731
 30
0.0
 10
66.797586
 20
332.813731
 30
0.0
  0
LWPOLYLINE
  5
13d
100
AcDbEntity
  8
Layer_1
 62
7
100
AcDbPolyline
 90
3
 70
0
 10
66.797586
 20
306.717768
 30
0.0
 10
66.797586
 20
309.892768
 30
0.0
 10
74.600856
 20
309.892768
 30
0.0
  0
LWPOLYLINE
  5
13e
100
AcDbEntity
  8
Layer_1
 62
7
100
AcDbPolyline
 90
2
 70
0
 10
74.600856
 20
335.988731
 30
0.0
 10
74.600856
 20
332.813731
 30
0.0
  0
LWPOLYLINE
  5
13f
100
AcDbEntity
  8
Layer_1
 62
7
100
AcDbPolyline
 90
2
 70
0
 10
82.526045
 20
335.988731
 30
0.0
 10
74.600856
 20
335.988731
 30
0.0
  0
LWPOLYLINE
  5
140
100
AcDbEntity
  8
Layer_1
 62
7
100
AcDbPolyline
 90
3
 70
0
 10
74.600856
 20
309.892768
 30
0.0
 10
74.600856
 20
306.717768
 30
0.0
 10
82.526045
 20
306.717768
 30
0.0
  0
LWPOLYLINE
  5
141
100
AcDbEntity
  8
Layer_1
 62
7
100
AcDbPolyline
 90
2
 70
0
 10
82.526045
 20
332.813731
 30
0.0
 10
82.526045
 20
335.988731
 30
0.0
  0
LWPOLYLINE
  5
142
100
AcDbEntity
  8
Layer_1
 62
7
100
AcDbPolyline
 90
2
 70
0
 10
90.329312
 20
332.813731
 30
0.0
 10
82.526045
 20
332.813731
 30
0.0
  0
LWPOLYLINE
  5
143
100
AcDbEntity
  8
Layer_1
 62
7
100
AcDbPolyline
 90
3
 70
0
 10
82.526045
 20
306.717768
 30
0.0
 10
82.526045
 20
309.892768
 30
0.0
 10
90.329312
 20
309.892768
 30
0.0
  0
LWPOLYLINE
  5
144
100
AcDbEntity
  8
Layer_1
 62
7
100
AcDbPolyline
 90
2
 70
0
 10
90.329312
 20
335.988731
 30
0.0
 10
90.329312
 20
332.813731
 30
0.0
  0
LWPOLYLINE
  5
145
100
AcDbEntity
  8
Layer_1
 62
7
100
AcDbPolyline
 90
2
 70
0
 10
98.254501
 20
335.988731
 30
0.0
 10
90.329312
 20
335.988731
 30
0.0
  0
LWPOLYLINE
  5
146
100
AcDbEntity
  8
Layer_1
 62
7
100
AcDbPolyline
 90
3
 70
0
 10
90.329312
 20
309.892768
 30
0.0
 10
90.329312
 20
306.717768
 30
0.0
 10
98.254501
 20
306.717768
 30
0.0
  0
LWPOLYLINE
  5
147
100
AcDbEntity
  8
Layer_1
 62
7
100
AcDbPolyline
 90
2
 70
0
 10
98.254501
 20
332.813731
 30
0.0
 10
98.254501
 20
335.988731
 30
0.0
  0
LWPOLYLINE
  5
148
100
AcDbEntity
  8
Layer_1
 62
7
100
AcDbPolyline
 90
2
 70
0
 10
106.118728
 20
332.813731
 30
0.0
 10
98.254498
 20
332.813731
 30
0.0
  0
LWPOLYLINE
  5
149
100
AcDbEntity
  8
Layer_1
 62
7
100
AcDbPolyline
 90
5
 70
0
 10
98.254501
 20
306.717768
 30
0.0
 10
98.254501
 20
309.892768
 30
0.0
 10
106.118728
 20
309.892768
 30
0.0
 10
106.118728
 20
314.464771
 30
0.0
 10
109.293728
 20
314.464771
 30
0.0
  0
LWPOLYLINE
  5
14a
100
AcDbEntity
  8
Layer_1
 62
7
100
AcDbPolyline
 90
2
 70
0
 10
106.118728
 20
319.097731
 30
0.0
 10
106.118728
 20
323.608771
 30
0.0
  0
LWPOLYLINE
  5
14b
100
AcDbEntity
  8
Layer_1
 62
7
100
AcDbPolyline
 90
2
 70
0
 10
109.293728
 20
319.097731
 30
0.0
 10
106.118728
 20
319.097731
 30
0.0
  0
LWPOLYLINE
  5
14c
100
AcDbEntity
  8
Layer_1
 62
7
100
AcDbPolyline
 90
2
 70
0
 10
106.118728
 20
323.608771
 30
0.0
 10
109.293728
 20
323.608771
 30
0.0
  0
LWPOLYLINE
  5
14d
100
AcDbEntity
  8
Layer_1
 62
7
100
AcDbPolyline
 90
2
 70
0
 10
106.118728
 20
328.241731
 30
0.0
 10
106.118728
 20
332.813731
 30
0.0
  0
LWPOLYLINE
  5
14e
100
AcDbEntity
  8
Layer_1
 62
7
100
AcDbPolyline
 90
2
 70
0
 10
109.293728
 20
328.241731
 30
0.0
 10
106.118728
 20
328.241731
 30
0.0
  0
LWPOLYLINE
  5
14f
100
AcDbEntity
  8
Layer_1
 62
7
100
AcDbPolyline
 90
2
 70
0
 10
109.293728
 20
314.464771
 30
0.0
 10
109.293728
 20
319.097731
 30
0.0
  0
LWPOLYLINE
  5
150
100
AcDbEntity
  8
Layer_1
 62
7
100
AcDbPolyline
 90
2
 70
0
 10
109.293728
 20
323.608771
 30
0.0
 10
109.293728
 20
328.241731
 30
0.0
  0
LWPOLYLINE
  5
151
100
AcDbEntity
  8
Layer_1
 62
7
100
AcDbPolyline
 90
3
 70
0
 10
0.647756
 20
352.117731
 30
0.0
 10
0.647756
 20
347.484771
 30
0.0
 10
3.822756
 20
347.484771
 30
0.0
  0
LWPOLYLINE
  5
152
100
AcDbEntity
  8
Layer_1
 62
7
100
AcDbPolyline
 90
2
 70
0
 10
3.822756
 20
352.117731
 30
0.0
 10
0.647756
 20
352.117731
 30
0.0
  0
LWPOLYLINE
  5
153
100
AcDbEntity
  8
Layer_1
 62
7
100
AcDbPolyline
 90
3
 70
0
 10
0.647756
 20
361.261731
 30
0.0
 10
0.647756
 20
356.628771
 30
0.0
 10
3.822756
 20
356.628771
 30
0.0
  0
LWPOLYLINE
  5
154
100
AcDbEntity
  8
Layer_1
 62
7
100
AcDbPolyline
 90
2
 70
0
 10
3.822756
 20
361.261731
 30
0.0
 10
0.647756
 20
361.261731
 30
0.0
  0
LWPOLYLINE
  5
155
100
AcDbEntity
  8
Layer_1
 62
7
100
AcDbPolyline
 90
3
 70
0
 10
3.822756
 20
347.484771
 30
0.0
 10
3.822756
 20
342.912768
 30
0.0
 10
11.686992
 20
342.912768
 30
0.0
  0
LWPOLYLINE
  5
156
100
AcDbEntity
  8
Layer_1
 62
7
100
AcDbPolyline
 90
2
 70
0
 10
3.822756
 20
356.628771
 30
0.0
 10
3.822756
 20
352.117731
 30
0.0
  0
LWPOLYLINE
  5
157
100
AcDbEntity
  8
Layer_1
 62
7
100
AcDbPolyline
 90
2
 70
0
 10
3.822756
 20
365.833731
 30
0.0
 10
3.822756
 20
361.261731
 30
0.0
  0
LWPOLYLINE
  5
158
100
AcDbEntity
  8
Layer_1
 62
7
100
AcDbPolyline
 90
2
 70
0
 10
11.686992
 20
365.833731
 30
0.0
 10
3.822756
 20
365.833731
 30
0.0
  0
LWPOLYLINE
  5
159
100
AcDbEntity
  8
Layer_1
 62
7
100
AcDbPolyline
 90
3
 70
0
 10
11.686992
 20
342.912768
 30
0.0
 10
11.686992
 20
339.737768
 30
0.0
 10
19.612187
 20
339.737768
 30
0.0
  0
LWPOLYLINE
  5
15a
100
AcDbEntity
  8
Layer_1
 62
7
100
AcDbPolyline
 90
2
 70
0
 10
11.686992
 20
369.008731
 30
0.0
 10
11.686992
 20
365.833731
 30
0.0
  0
LWPOLYLINE
  5
15b
100
AcDbEntity
  8
Layer_1
 62
7
100
AcDbPolyline
 90
2
 70
0
 10
19.612187
 20
369.008731
 30
0.0
 10
11.686992
 20
369.008731
 30
0.0
  0
LWPOLYLINE
  5
15c
100
AcDbEntity
  8
Layer_1
 62
7
100
AcDbPolyline
 90
3
 70
0
 10
19.612187
 20
339.737768
 30
0.0
 10
19.612187
 20
342.912768
 30
0.0
 10
27.415434
 20
342.912768
 30
0.0
  0
LWPOLYLINE
  5
15d
100
AcDbEntity
  8
Layer_1
 62
7
100
AcDbPolyline
 90
2
 70
0
 10
19.612187
 20
365.833731
 30
0.0
 10
19.612187
 20
369.008731
 30
0.0
  0
LWPOLYLINE
  5
15e
100
AcDbEntity
  8
Layer_1
 62
7
100
AcDbPolyline
 90
2
 70
0
 10
27.415434
 20
365.833731
 30
0.0
 10
19.612187
 20
365.833731
 30
0.0
  0
LWPOLYLINE
  5
15f
100
AcDbEntity
  8
Layer_1
 62
7
100
AcDbPolyline
 90
3
 70
0
 10
27.415434
 20
342.912768
 30
0.0
 10
27.415434
 20
339.737768
 30
0.0
 10
35.340629
 20
339.737768
 30
0.0
  0
LWPOLYLINE
  5
160
100
AcDbEntity
  8
Layer_1
 62
7
100
AcDbPolyline
 90
2
 70
0
 10
27.415434
 20
369.008731
 30
0.0
 10
27.415434
 20
365.833731
 30
0.0
  0
LWPOLYLINE
  5
161
100
AcDbEntity
  8
Layer_1
 62
7
100
AcDbPolyline
 90
2
 70
0
 10
35.340629
 20
369.008731
 30
0.0
 10
27.415434
 20
369.008731
 30
0.0
  0
LWPOLYLINE
  5
162
100
AcDbEntity
  8
Layer_1
 62
7
100
AcDbPolyline
 90
3
 70
0
 10
35.340629
 20
339.737768
 30
0.0
 10
35.340629
 20
342.912768
 30
0.0
 10
43.143904
 20
342.912768
 30
0.0
  0
LWPOLYLINE
  5
163
100
AcDbEntity
  8
Layer_1
 62
7
100
AcDbPolyline
 90
2
 70
0
 10
35.340629
 20
365.833731
 30
0.0
 10
35.340629
 20
369.008731
 30
0.0
  0
LWPOLYLINE
  5
164
100
AcDbEntity
  8
Layer_1
 62
7
100
AcDbPolyline
 90
2
 70
0
 10
43.143904
 20
365.833731
 30
0.0
 10
35.340629
 20
365.833731
 30
0.0
  0
LWPOLYLINE
  5
165
100
AcDbEntity
  8
Layer_1
 62
7
100
AcDbPolyline
 90
3
 70
0
 10
43.143904
 20
342.912768
 30
0.0
 10
43.143904
 20
339.737768
 30
0.0
 10
51.069099
 20
339.737768
 30
0.0
  0
LWPOLYLINE
  5
166
100
AcDbEntity
  8
Layer_1
 62
7
100
AcDbPolyline
 90
2
 70
0
 10
43.143904
 20
369.008731
 30
0.0
 10
43.143904
 20
365.833731
 30
0.0
  0
LWPOLYLINE
  5
167
100
AcDbEntity
  8
Layer_1
 62
7
100
AcDbPolyline
 90
2
 70
0
 10
51.069099
 20
369.008731
 30
0.0
 10
43.143904
 20
369.008731
 30
0.0
  0
LWPOLYLINE
  5
168
100
AcDbEntity
  8
Layer_1
 62
7
100
AcDbPolyline
 90
3
 70
0
 10
51.069099
 20
339.737768
 30
0.0
 10
51.069099
 20
342.912768
 30
0.0
 10
58.872402
 20
342.912768
 30
0.0
  0
LWPOLYLINE
  5
169
100
AcDbEntity
  8
Layer_1
 62
7
100
AcDbPolyline
 90
2
 70
0
 10
51.069099
 20
365.833731
 30
0.0
 10
51.069099
 20
369.008731
 30
0.0
  0
LWPOLYLINE
  5
16a
100
AcDbEntity
  8
Layer_1
 62
7
100
AcDbPolyline
 90
2
 70
0
 10
58.872402
 20
365.833731
 30
0.0
 10
51.069099
 20
365.833731
 30
0.0
  0
LWPOLYLINE
  5
16b
100
AcDbEntity
  8
Layer_1
 62
7
100
AcDbPolyline
 90
3
 70
0
 10
58.872402
 20
342.912768
 30
0.0
 10
58.872402
 20
339.737768
 30
0.0
 10
66.797569
 20
339.737768
 30
0.0
  0
LWPOLYLINE
  5
16c
100
AcDbEntity
  8
Layer_1
 62
7
100
AcDbPolyline
 90
2
 70
0
 10
58.872402
 20
369.008731
 30
0.0
 10
58.872402
 20
365.833731
 30
0.0
  0
LWPOLYLINE
  5
16d
100
AcDbEntity
  8
Layer_1
 62
7
100
AcDbPolyline
 90
2
 70
0
 10
66.797569
 20
369.008731
 30
0.0
 10
58.872402
 20
369.008731
 30
0.0
  0
LWPOLYLINE
  5
16e
100
AcDbEntity
  8
Layer_1
 62
7
100
AcDbPolyline
 90
3
 70
0
 10
66.797569
 20
339.737768
 30
0.0
 10
66.797569
 20
342.912768
 30
0.0
 10
74.600844
 20
342.912768
 30
0.0
  0
LWPOLYLINE
  5
16f
100
AcDbEntity
  8
Layer_1
 62
7
100
AcDbPolyline
 90
2
 70
0
 10
66.797569
 20
365.833731
 30
0.0
 10
66.797569
 20
369.008731
 30
0.0
  0
LWPOLYLINE
  5
170
100
AcDbEntity
  8
Layer_1
 62
7
100
AcDbPolyline
 90
2
 70
0
 10
74.600844
 20
365.833731
 30
0.0
 10
66.797569
 20
365.833731
 30
0.0
  0
LWPOLYLINE
  5
171
100
AcDbEntity
  8
Layer_1
 62
7
100
AcDbPolyline
 90
3
 70
0
 10
74.600844
 20
342.912768
 30
0.0
 10
74.600844
 20
339.737768
 30
0.0
 10
82.526039
 20
339.737768
 30
0.0
  0
LWPOLYLINE
  5
172
100
AcDbEntity
  8
Layer_1
 62
7
100
AcDbPolyline
 90
2
 70
0
 10
74.600844
 20
369.008731
 30
0.0
 10
74.600844
 20
365.833731
 30
0.0
  0
LWPOLYLINE
  5
173
100
AcDbEntity
  8
Layer_1
 62
7
100
AcDbPolyline
 90
2
 70
0
 10
82.526039
 20
369.008731
 30
0.0
 10
74.600844
 20
369.008731
 30
0.0
  0
LWPOLYLINE
  5
174
100
AcDbEntity
  8
Layer_1
 62
7
100
AcDbPolyline
 90
3
 70
0
 10
82.526039
 20
339.737768
 30
0.0
 10
82.526039
 20
342.912768
 30
0.0
 10
90.329314
 20
342.912768
 30
0.0
  0
LWPOLYLINE
  5
175
100
AcDbEntity
  8
Layer_1
 62
7
100
AcDbPolyline
 90
2
 70
0
 10
82.526039
 20
365.833731
 30
0.0
 10
82.526039
 20
369.008731
 30
0.0
  0
LWPOLYLINE
  5
176
100
AcDbEntity
  8
Layer_1
 62
7
100
AcDbPolyline
 90
2
 70
0
 10
90.329314
 20
365.833731
 30
0.0
 10
82.526039
 20
365.833731
 30
0.0
  0
LWPOLYLINE
  5
177
100
AcDbEntity
  8
Layer_1
 62
7
100
AcDbPolyline
 90
3
 70
0
 10
90.329314
 20
342.912768
 30
0.0
 10
90.329314
 20
339.737768
 30
0.0
 10
98.254481
 20
339.737768
 30
0.0
  0
LWPOLYLINE
  5
178
100
AcDbEntity
  8
Layer_1
 62
7
100
AcDbPolyline
 90
2
 70
0
 10
90.329314
 20
369.008731
 30
0.0
 10
90.329314
 20
365.833731
 30
0.0
  0
LWPOLYLINE
  5
179
100
AcDbEntity
  8
Layer_1
 62
7
100
AcDbPolyline
 90
2
 70
0
 10
98.254481
 20
369.008731
 30
0.0
 10
90.329314
 20
369.008731
 30
0.0
  0
LWPOLYLINE
  5
17a
100
AcDbEntity
  8
Layer_1
 62
7
100
AcDbPolyline
 90
3
 70
0
 10
98.254481
 20
339.737768
 30
0.0
 10
98.254481
 20
342.912768
 30
0.0
 10
106.118716
 20
342.912768
 30
0.0
  0
LWPOLYLINE
  5
17b
100
AcDbEntity
  8
Layer_1
 62
7
100
AcDbPolyline
 90
2
 70
0
 10
98.254481
 20
365.833731
 30
0.0
 10
98.254481
 20
369.008731
 30
0.0
  0
LWPOLYLINE
  5
17c
100
AcDbEntity
  8
Layer_1
 62
7
100
AcDbPolyline
 90
2
 70
0
 10
106.118716
 20
365.833731
 30
0.0
 10
98.254481
 20
365.833731
 30
0.0
  0
LWPOLYLINE
  5
17d
100
AcDbEntity
  8
Layer_1
 62
7
100
AcDbPolyline
 90
3
 70
0
 10
106.118716
 20
342.912768
 30
0.0
 10
106.118716
 20
347.484771
 30
0.0
 10
109.293716
 20
347.484771
 30
0.0
  0
LWPOLYLINE
  5
17e
100
AcDbEntity
  8
Layer_1
 62
7
100
AcDbPolyline
 90
2
 70
0
 10
106.118716
 20
352.117731
 30
0.0
 10
106.118716
 20
356.628771
 30
0.0
  0
LWPOLYLINE
  5
17f
100
AcDbEntity
  8
Layer_1
 62
7
100
AcDbPolyline
 90
2
 70
0
 10
109.293716
 20
352.117731
 30
0.0
 10
106.118716
 20
352.117731
 30
0.0
  0
LWPOLYLINE
  5
180
100
AcDbEntity
  8
Layer_1
 62
7
100
AcDbPolyline
 90
2
 70
0
 10
106.118716
 20
356.628771
 30
0.0
 10
109.293716
 20
356.628771
 30
0.0
  0
LWPOLYLINE
  5
181
100
AcDbEntity
  8
Layer_1
 62
7
100
AcDbPolyline
 90
2
 70
0
 10
106.118716
 20
361.261731
 30
0.0
 10
106.118716
 20
365.833731
 30
0.0
  0
LWPOLYLINE
  5
182
100
AcDbEntity
  8
Layer_1
 62
7
100
AcDbPolyline
 90
2
 70
0
 10
109.293716
 20
361.261731
 30
0.0
 10
106.118716
 20
361.261731
 30
0.0
  0
LWPOLYLINE
  5
183
100
AcDbEntity
  8
Layer_1
 62
7
100
AcDbPolyline
 90
2
 70
0
 10
109.293716
 20
347.484771
 30
0.0
 10
109.293716
 20
352.117731
 30
0.0
  0
LWPOLYLINE
  5
184
100
AcDbEntity
  8
Layer_1
 62
7
100
AcDbPolyline
 90
2
 70
0
 10
109.293716
 20
356.628771
 30
0.0
 10
109.293716
 20
361.261731
 30
0.0
  0
LWPOLYLINE
  5
185
100
AcDbEntity
  8
Layer_1
 62
7
100
AcDbPolyline
 90
5
 70
1
 10
0.647768
 20
236.842229
 30
0.0
 10
182.232221
 20
236.842229
 30
0.0
 10
182.232221
 20
120.662768
 30
0.0
 10
0.647768
 20
120.662768
 30
0.0
 10
0.647768
 20
236.842229
 30
0.0
  0
LWPOLYLINE
  5
186
100
AcDbEntity
  8
Layer_1
 62
7
100
AcDbPolyline
 90
5
 70
1
 10
4.457767
 20
127.647771
 30
0.0
 10
7.632767
 20
127.647771
 30
0.0
 10
7.632767
 20
124.472771
 30
0.0
 10
4.457767
 20
124.472771
 30
0.0
 10
4.457767
 20
127.647771
 30
0.0
  0
LWPOLYLINE
  5
187
100
AcDbEntity
  8
Layer_1
 62
7
100
AcDbPolyline
 90
5
 70
1
 10
16.522767
 20
127.647771
 30
0.0
 10
25.279101
 20
127.647771
 30
0.0
 10
25.279101
 20
124.472768
 30
0.0
 10
16.522767
 20
124.472768
 30
0.0
 10
16.522767
 20
127.647771
 30
0.0
  0
LWPOLYLINE
  5
188
100
AcDbEntity
  8
Layer_1
 62
7
100
AcDbPolyline
 90
5
 70
1
 10
34.163209
 20
127.647771
 30
0.0
 10
42.925396
 20
127.647771
 30
0.0
 10
42.925396
 20
124.472771
 30
0.0
 10
34.163209
 20
124.472771
 30
0.0
 10
34.163209
 20
127.647771
 30
0.0
  0
LWPOLYLINE
  5
189
100
AcDbEntity
  8
Layer_1
 62
7
100
AcDbPolyline
 90
5
 70
1
 10
51.809509
 20
127.647771
 30
0.0
 10
60.571733
 20
127.647771
 30
0.0
 10
60.571733
 20
124.472771
 30
0.0
 10
51.809509
 20
124.472771
 30
0.0
 10
51.809509
 20
127.647771
 30
0.0
  0
LWPOLYLINE
  5
18a
100
AcDbEntity
  8
Layer_1
 62
7
100
AcDbPolyline
 90
5
 70
1
 10
69.455837
 20
127.647771
 30
0.0
 10
78.218027
 20
127.647771
 30
0.0
 10
78.218027
 20
124.472771
 30
0.0
 10
69.455837
 20
124.472771
 30
0.0
 10
69.455837
 20
127.647771
 30
0.0
  0
LWPOLYLINE
  5
18b
100
AcDbEntity
  8
Layer_1
 62
7
100
AcDbPolyline
 90
5
 70
1
 10
87.102134
 20
127.647771
 30
0.0
 10
95.864358
 20
127.647771
 30
0.0
 10
95.864358
 20
124.472771
 30
0.0
 10
87.102134
 20
124.472771
 30
0.0
 10
87.102134
 20
127.647771
 30
0.0
  0
LWPOLYLINE
  5
18c
100
AcDbEntity
  8
Layer_1
 62
7
100
AcDbPolyline
 90
5
 70
1
 10
104.748465
 20
127.647771
 30
0.0
 10
113.510650
 20
127.647771
 30
0.0
 10
113.510650
 20
124.472771
 30
0.0
 10
104.748465
 20
124.472771
 30
0.0
 10
104.748465
 20
127.647771
 30
0.0
  0
LWPOLYLINE
  5
18d
100
AcDbEntity
  8
Layer_1
 62
7
100
AcDbPolyline
 90
5
 70
1
 10
122.394760
 20
127.647771
 30
0.0
 10
131.156984
 20
127.647771
 30
0.0
 10
131.156984
 20
124.472771
 30
0.0
 10
122.394760
 20
124.472771
 30
0.0
 10
122.394760
 20
127.647771
 30
0.0
  0
LWPOLYLINE
  5
18e
100
AcDbEntity
  8
Layer_1
 62
7
100
AcDbPolyline
 90
5
 70
1
 10
140.041091
 20
127.647771
 30
0.0
 10
148.803281
 20
127.647771
 30
0.0
 10
148.803281
 20
124.472771
 30
0.0
 10
140.041091
 20
124.472771
 30
0.0
 10
140.041091
 20
127.647771
 30
0.0
  0
LWPOLYLINE
  5
18f
100
AcDbEntity
  8
Layer_1
 62
7
100
AcDbPolyline
 90
5
 70
1
 10
157.687394
 20
127.647771
 30
0.0
 10
166.449621
 20
127.647771
 30
0.0
 10
166.449621
 20
124.472771
 30
0.0
 10
157.687394
 20
124.472771
 30
0.0
 10
157.687394
 20
127.647771
 30
0.0
  0
LWPOLYLINE
  5
190
100
AcDbEntity
  8
Layer_1
 62
7
100
AcDbPolyline
 90
5
 70
1
 10
175.333725
 20
127.647771
 30
0.0
 10
178.508725
 20
127.647771
 30
0.0
 10
178.508725
 20
124.472771
 30
0.0
 10
175.333725
 20
124.472771
 30
0.0
 10
175.333725
 20
127.647771
 30
0.0
  0
LWPOLYLINE
  5
191
100
AcDbEntity
  8
Layer_1
 62
7
100
AcDbPolyline
 90
5
 70
1
 10
175.333725
 20
143.376218
 30
0.0
 10
178.508725
 20
143.376218
 30
0.0
 10
178.508725
 20
135.572971
 30
0.0
 10
175.333725
 20
135.572971
 30
0.0
 10
175.333725
 20
143.376218
 30
0.0
  0
LWPOLYLINE
  5
192
100
AcDbEntity
  8
Layer_1
 62
7
100
AcDbPolyline
 90
5
 70
1
 10
175.333725
 20
159.104671
 30
0.0
 10
178.508725
 20
159.104671
 30
0.0
 10
178.508725
 20
151.301396
 30
0.0
 10
175.333725
 20
151.301396
 30
0.0
 10
175.333725
 20
159.104671
 30
0.0
  0
LWPOLYLINE
  5
193
100
AcDbEntity
  8
Layer_1
 62
7
100
AcDbPolyline
 90
5
 70
1
 10
175.333725
 20
174.833125
 30
0.0
 10
178.508725
 20
174.833125
 30
0.0
 10
178.508725
 20
167.029878
 30
0.0
 10
175.333725
 20
167.029878
 30
0.0
 10
175.333725
 20
174.833125
 30
0.0
  0
LWPOLYLINE
  5
194
100
AcDbEntity
  8
Layer_1
 62
7
100
AcDbPolyline
 90
5
 70
1
 10
175.333725
 20
190.561623
 30
0.0
 10
178.508725
 20
190.561623
 30
0.0
 10
178.508725
 20
182.758348
 30
0.0
 10
175.333725
 20
182.758348
 30
0.0
 10
175.333725
 20
190.561623
 30
0.0
  0
LWPOLYLINE
  5
195
100
AcDbEntity
  8
Layer_1
 62
7
100
AcDbPolyline
 90
5
 70
1
 10
175.333725
 20
206.290085
 30
0.0
 10
178.508725
 20
206.290085
 30
0.0
 10
178.508725
 20
198.486810
 30
0.0
 10
175.333725
 20
198.486810
 30
0.0
 10
175.333725
 20
206.290085
 30
0.0
  0
LWPOLYLINE
  5
196
100
AcDbEntity
  8
Layer_1
 62
7
100
AcDbPolyline
 90
5
 70
1
 10
175.333725
 20
222.018533
 30
0.0
 10
178.508725
 20
222.018533
 30
0.0
 10
178.508725
 20
214.215258
 30
0.0
 10
175.333725
 20
214.215258
 30
0.0
 10
175.333725
 20
222.018533
 30
0.0
  0
LWPOLYLINE
  5
197
100
AcDbEntity
  8
Layer_1
 62
7
100
AcDbPolyline
 90
5
 70
1
 10
4.457767
 20
143.376218
 30
0.0
 10
7.632767
 20
143.376218
 30
0.0
 10
7.632767
 20
135.572971
 30
0.0
 10
4.457767
 20
135.572971
 30
0.0
 10
4.457767
 20
143.376218
 30
0.0
  0
LWPOLYLINE
  5
198
100
AcDbEntity
  8
Layer_1
 62
7
100
AcDbPolyline
 90
5
 70
1
 10
4.457767
 20
159.104671
 30
0.0
 10
7.632767
 20
159.104671
 30
0.0
 10
7.632767
 20
151.301396
 30
0.0
 10
4.457767
 20
151.301396
 30
0.0
 10
4.457767
 20
159.104671
 30
0.0
  0
LWPOLYLINE
  5
199
100
AcDbEntity
  8
Layer_1
 62
7
100
AcDbPolyline
 90
5
 70
1
 10
4.457767
 20
174.833125
 30
0.0
 10
7.632767
 20
174.833125
 30
0.0
 10
7.632767
 20
167.017768
 30
0.0
 10
4.457767
 20
167.017768
 30
0.0
 10
4.457767
 20
174.833125
 30
0.0
  0
LWPOLYLINE
  5
19a
100
AcDbEntity
  8
Layer_1
 62
7
100
AcDbPolyline
 90
5
 70
1
 10
4.457767
 20
190.561623
 30
0.0
 10
7.632767
 20
190.561623
 30
0.0
 10
7.632767
 20
182.758348
 30
0.0
 10
4.457767
 20
182.758348
 30
0.0
 10
4.457767
 20
190.561623
 30
0.0
  0
LWPOLYLINE
  5
19b
100
AcDbEntity
  8
Layer_1
 62
7
100
AcDbPolyline
 90
5
 70
1
 10
4.457767
 20
206.290085
 30
0.0
 10
7.632767
 20
206.290085
 30
0.0
 10
7.632767
 20
198.486810
 30
0.0
 10
4.457767
 20
198.486810
 30
0.0
 10
4.457767
 20
206.290085
 30
0.0
  0
LWPOLYLINE
  5
19c
100
AcDbEntity
  8
Layer_1
 62
7
100
AcDbPolyline
 90
5
 70
1
 10
4.457767
 20
222.018533
 30
0.0
 10
7.632767
 20
222.018533
 30
0.0
 10
7.632767
 20
214.215258
 30
0.0
 10
4.457767
 20
214.215258
 30
0.0
 10
4.457767
 20
222.018533
 30
0.0
  0
LWPOLYLINE
  5
19d
100
AcDbEntity
  8
Layer_1
 62
7
100
AcDbPolyline
 90
5
 70
1
 10
4.457767
 20
233.118728
 30
0.0
 10
7.632767
 20
233.118728
 30
0.0
 10
7.632767
 20
229.943728
 30
0.0
 10
4.457767
 20
229.943728
 30
0.0
 10
4.457767
 20
233.118728
 30
0.0
  0
LWPOLYLINE
  5
19e
100
AcDbEntity
  8
Layer_1
 62
7
100
AcDbPolyline
 90
5
 70
1
 10
16.516874
 20
233.118733
 30
0.0
 10
25.279101
 20
233.118733
 30
0.0
 10
25.279101
 20
229.943731
 30
0.0
 10
16.516874
 20
229.943731
 30
0.0
 10
16.516874
 20
233.118733
 30
0.0
  0
LWPOLYLINE
  5
19f
100
AcDbEntity
  8
Layer_1
 62
7
100
AcDbPolyline
 90
5
 70
1
 10
34.163209
 20
233.118728
 30
0.0
 10
42.925396
 20
233.118728
 30
0.0
 10
42.925396
 20
229.943728
 30
0.0
 10
34.163209
 20
229.943728
 30
0.0
 10
34.163209
 20
233.118728
 30
0.0
  0
LWPOLYLINE
  5
1a0
100
AcDbEntity
  8
Layer_1
 62
7
100
AcDbPolyline
 90
5
 70
1
 10
51.809509
 20
233.118728
 30
0.0
 10
60.571733
 20
233.118728
 30
0.0
 10
60.571733
 20
229.943728
 30
0.0
 10
51.809509
 20
229.943728
 30
0.0
 10
51.809509
 20
233.118728
 30
0.0
  0
LWPOLYLINE
  5
1a1
100
AcDbEntity
  8
Layer_1
 62
7
100
AcDbPolyline
 90
5
 70
1
 10
69.455837
 20
233.118728
 30
0.0
 10
78.218027
 20
233.118728
 30
0.0
 10
78.218027
 20
229.943728
 30
0.0
 10
69.455837
 20
229.943728
 30
0.0
 10
69.455837
 20
233.118728
 30
0.0
  0
LWPOLYLINE
  5
1a2
100
AcDbEntity
  8
Layer_1
 62
7
100
AcDbPolyline
 90
5
 70
1
 10
87.102134
 20
233.118728
 30
0.0
 10
95.864358
 20
233.118728
 30
0.0
 10
95.864358
 20
229.943728
 30
0.0
 10
87.102134
 20
229.943728
 30
0.0
 10
87.102134
 20
233.118728
 30
0.0
  0
LWPOLYLINE
  5
1a3
100
AcDbEntity
  8
Layer_1
 62
7
100
AcDbPolyline
 90
5
 70
1
 10
104.748465
 20
233.118728
 30
0.0
 10
113.510650
 20
233.118728
 30
0.0
 10
113.510650
 20
229.943728
 30
0.0
 10
104.748465
 20
229.943728
 30
0.0
 10
104.748465
 20
233.118728
 30
0.0
  0
LWPOLYLINE
  5
1a4
100
AcDbEntity
  8
Layer_1
 62
7
100
AcDbPolyline
 90
5
 70
1
 10
122.394760
 20
233.118728
 30
0.0
 10
131.156984
 20
233.118728
 30
0.0
 10
131.156984
 20
229.943728
 30
0.0
 10
122.394760
 20
229.943728
 30
0.0
 10
122.394760
 20
233.118728
 30
0.0
  0
LWPOLYLINE
  5
1a5
100
AcDbEntity
  8
Layer_1
 62
7
100
AcDbPolyline
 90
5
 70
1
 10
140.041091
 20
233.118728
 30
0.0
 10
148.803281
 20
233.118728
 30
0.0
 10
148.803281
 20
229.943728
 30
0.0
 10
140.041091
 20
229.943728
 30
0.0
 10
140.041091
 20
233.118728
 30
0.0
  0
LWPOLYLINE
  5
1a6
100
AcDbEntity
  8
Layer_1
 62
7
100
AcDbPolyline
 90
5
 70
1
 10
157.687394
 20
233.118728
 30
0.0
 10
166.449618
 20
233.118728
 30
0.0
 10
166.449618
 20
229.943728
 30
0.0
 10
157.687394
 20
229.943728
 30
0.0
 10
157.687394
 20
233.118728
 30
0.0
  0
LWPOLYLINE
  5
1a7
100
AcDbEntity
  8
Layer_1
 62
7
100
AcDbPolyline
 90
5
 70
1
 10
175.333725
 20
233.118728
 30
0.0
 10
178.508725
 20
233.118728
 30
0.0
 10
178.508725
 20
229.943728
 30
0.0
 10
175.333725
 20
229.943728
 30
0.0
 10
175.333725
 20
233.118728
 30
0.0
  0
LWPOLYLINE
  5
1a8
100
AcDbEntity
  8
Layer_1
 62
7
100
AcDbPolyline
 90
2
 70
0
 10
4.457768
 20
240.677768
 30
0.0
 10
4.457768
 20
243.852768
 30
0.0
  0
LWPOLYLINE
  5
1a9
100
AcDbEntity
  8
Layer_1
 62
7
100
AcDbPolyline
 90
2
 70
0
 10
4.457768
 20
240.677768
 30
0.0
 10
7.632768
 20
240.677768
 30
0.0
  0
LWPOLYLINE
  5
1aa
100
AcDbEntity
  8
Layer_1
 62
7
100
AcDbPolyline
 90
2
 70
0
 10
7.632768
 20
248.485731
 30
0.0
 10
4.457768
 20
248.485731
 30
0.0
  0
LWPOLYLINE
  5
1ab
100
AcDbEntity
  8
Layer_1
 62
7
100
AcDbPolyline
 90
2
 70
0
 10
4.457768
 20
252.996771
 30
0.0
 10
7.632768
 20
252.996771
 30
0.0
  0
LWPOLYLINE
  5
1ac
100
AcDbEntity
  8
Layer_1
 62
7
100
AcDbPolyline
 90
2
 70
0
 10
7.632768
 20
257.629731
 30
0.0
 10
4.457768
 20
257.629731
 30
0.0
  0
LWPOLYLINE
  5
1ad
100
AcDbEntity
  8
Layer_1
 62
7
100
AcDbPolyline
 90
2
 70
0
 10
4.457768
 20
262.140771
 30
0.0
 10
7.632768
 20
262.140771
 30
0.0
  0
LWPOLYLINE
  5
1ae
100
AcDbEntity
  8
Layer_1
 62
7
100
AcDbPolyline
 90
3
 70
0
 10
4.457768
 20
266.773731
 30
0.0
 10
4.457768
 20
269.948731
 30
0.0
 10
7.632768
 20
269.948731
 30
0.0
  0
LWPOLYLINE
  5
1af
100
AcDbEntity
  8
Layer_1
 62
7
100
AcDbPolyline
 90
2
 70
0
 10
16.455915
 20
266.773731
 30
0.0
 10
7.632768
 20
266.773731
 30
0.0
  0
LWPOLYLINE
  5
1b0
100
AcDbEntity
  8
Layer_1
 62
7
100
AcDbPolyline
 90
2
 70
0
 10
7.632768
 20
240.677768
 30
0.0
 10
7.693728
 20
240.677768
 30
0.0
  0
LWPOLYLINE
  5
1b1
100
AcDbEntity
  8
Layer_1
 62
7
100
AcDbPolyline
 90
2
 70
0
 10
7.632768
 20
243.852768
 30
0.0
 10
16.455915
 20
243.852768
 30
0.0
  0
LWPOLYLINE
  5
1b2
100
AcDbEntity
  8
Layer_1
 62
7
100
AcDbPolyline
 90
2
 70
0
 10
7.632768
 20
252.996771
 30
0.0
 10
7.632768
 20
248.485731
 30
0.0
  0
LWPOLYLINE
  5
1b3
100
AcDbEntity
  8
Layer_1
 62
7
100
AcDbPolyline
 90
2
 70
0
 10
7.632768
 20
262.140771
 30
0.0
 10
7.632768
 20
257.629731
 30
0.0
  0
LWPOLYLINE
  5
1b4
100
AcDbEntity
  8
Layer_1
 62
7
100
AcDbPolyline
 90
2
 70
0
 10
7.632768
 20
269.948731
 30
0.0
 10
7.693728
 20
269.948731
 30
0.0
  0
LWPOLYLINE
  5
1b5
100
AcDbEntity
  8
Layer_1
 62
7
100
AcDbPolyline
 90
2
 70
0
 10
7.693728
 20
240.677768
 30
0.0
 10
7.693728
 20
243.852768
 30
0.0
  0
LWPOLYLINE
  5
1b6
100
AcDbEntity
  8
Layer_1
 62
7
100
AcDbPolyline
 90
2
 70
0
 10
7.693728
 20
269.948731
 30
0.0
 10
7.693728
 20
266.773731
 30
0.0
  0
LWPOLYLINE
  5
1b7
100
AcDbEntity
  8
Layer_1
 62
7
100
AcDbPolyline
 90
2
 70
0
 10
16.455915
 20
269.948731
 30
0.0
 10
16.455915
 20
266.773731
 30
0.0
  0
LWPOLYLINE
  5
1b8
100
AcDbEntity
  8
Layer_1
 62
7
100
AcDbPolyline
 90
2
 70
0
 10
25.340062
 20
269.948731
 30
0.0
 10
16.455915
 20
269.948731
 30
0.0
  0
LWPOLYLINE
  5
1b9
100
AcDbEntity
  8
Layer_1
 62
7
100
AcDbPolyline
 90
3
 70
0
 10
16.455915
 20
243.852768
 30
0.0
 10
16.455915
 20
240.677768
 30
0.0
 10
25.340062
 20
240.677768
 30
0.0
  0
LWPOLYLINE
  5
1ba
100
AcDbEntity
  8
Layer_1
 62
7
100
AcDbPolyline
 90
2
 70
0
 10
25.340062
 20
266.773731
 30
0.0
 10
25.340062
 20
269.948731
 30
0.0
  0
LWPOLYLINE
  5
1bb
100
AcDbEntity
  8
Layer_1
 62
7
100
AcDbPolyline
 90
2
 70
0
 10
34.102249
 20
266.773731
 30
0.0
 10
25.340062
 20
266.773731
 30
0.0
  0
LWPOLYLINE
  5
1bc
100
AcDbEntity
  8
Layer_1
 62
7
100
AcDbPolyline
 90
3
 70
0
 10
25.340062
 20
240.677768
 30
0.0
 10
25.340062
 20
243.852768
 30
0.0
 10
34.102249
 20
243.852768
 30
0.0
  0
LWPOLYLINE
  5
1bd
100
AcDbEntity
  8
Layer_1
 62
7
100
AcDbPolyline
 90
2
 70
0
 10
34.102249
 20
269.948731
 30
0.0
 10
34.102249
 20
266.773731
 30
0.0
  0
LWPOLYLINE
  5
1be
100
AcDbEntity
  8
Layer_1
 62
7
100
AcDbPolyline
 90
2
 70
0
 10
42.986356
 20
269.948731
 30
0.0
 10
34.102249
 20
269.948731
 30
0.0
  0
LWPOLYLINE
  5
1bf
100
AcDbEntity
  8
Layer_1
 62
7
100
AcDbPolyline
 90
3
 70
0
 10
34.102249
 20
243.852768
 30
0.0
 10
34.102249
 20
240.677768
 30
0.0
 10
42.986356
 20
240.677768
 30
0.0
  0
LWPOLYLINE
  5
1c0
100
AcDbEntity
  8
Layer_1
 62
7
100
AcDbPolyline
 90
2
 70
0
 10
42.986356
 20
266.773731
 30
0.0
 10
42.986356
 20
269.948731
 30
0.0
  0
LWPOLYLINE
  5
1c1
100
AcDbEntity
  8
Layer_1
 62
7
100
AcDbPolyline
 90
2
 70
0
 10
51.748546
 20
266.773731
 30
0.0
 10
42.986356
 20
266.773731
 30
0.0
  0
LWPOLYLINE
  5
1c2
100
AcDbEntity
  8
Layer_1
 62
7
100
AcDbPolyline
 90
3
 70
0
 10
42.986356
 20
240.677768
 30
0.0
 10
42.986356
 20
243.852768
 30
0.0
 10
51.748546
 20
243.852768
 30
0.0
  0
LWPOLYLINE
  5
1c3
100
AcDbEntity
  8
Layer_1
 62
7
100
AcDbPolyline
 90
2
 70
0
 10
51.748546
 20
269.948731
 30
0.0
 10
51.748546
 20
266.773731
 30
0.0
  0
LWPOLYLINE
  5
1c4
100
AcDbEntity
  8
Layer_1
 62
7
100
AcDbPolyline
 90
2
 70
0
 10
60.632690
 20
269.948731
 30
0.0
 10
51.748546
 20
269.948731
 30
0.0
  0
LWPOLYLINE
  5
1c5
100
AcDbEntity
  8
Layer_1
 62
7
100
AcDbPolyline
 90
3
 70
0
 10
51.748546
 20
243.852768
 30
0.0
 10
51.748546
 20
240.677768
 30
0.0
 10
60.632690
 20
240.677768
 30
0.0
  0
LWPOLYLINE
  5
1c6
100
AcDbEntity
  8
Layer_1
 62
7
100
AcDbPolyline
 90
2
 70
0
 10
60.632690
 20
266.773731
 30
0.0
 10
60.632690
 20
269.948731
 30
0.0
  0
LWPOLYLINE
  5
1c7
100
AcDbEntity
  8
Layer_1
 62
7
100
AcDbPolyline
 90
2
 70
0
 10
69.394877
 20
266.773731
 30
0.0
 10
60.632690
 20
266.773731
 30
0.0
  0
LWPOLYLINE
  5
1c8
100
AcDbEntity
  8
Layer_1
 62
7
100
AcDbPolyline
 90
3
 70
0
 10
60.632690
 20
240.677768
 30
0.0
 10
60.632690
 20
243.852768
 30
0.0
 10
69.394877
 20
243.852768
 30
0.0
  0
LWPOLYLINE
  5
1c9
100
AcDbEntity
  8
Layer_1
 62
7
100
AcDbPolyline
 90
2
 70
0
 10
69.394877
 20
269.948731
 30
0.0
 10
69.394877
 20
266.773731
 30
0.0
  0
LWPOLYLINE
  5
1ca
100
AcDbEntity
  8
Layer_1
 62
7
100
AcDbPolyline
 90
2
 70
0
 10
78.278987
 20
269.948731
 30
0.0
 10
69.394877
 20
269.948731
 30
0.0
  0
LWPOLYLINE
  5
1cb
100
AcDbEntity
  8
Layer_1
 62
7
100
AcDbPolyline
 90
3
 70
0
 10
69.394877
 20
243.852768
 30
0.0
 10
69.394877
 20
240.677768
 30
0.0
 10
78.278987
 20
240.677768
 30
0.0
  0
LWPOLYLINE
  5
1cc
100
AcDbEntity
  8
Layer_1
 62
7
100
AcDbPolyline
 90
2
 70
0
 10
78.278987
 20
266.773731
 30
0.0
 10
78.278987
 20
269.948731
 30
0.0
  0
LWPOLYLINE
  5
1cd
100
AcDbEntity
  8
Layer_1
 62
7
100
AcDbPolyline
 90
2
 70
0
 10
87.041174
 20
266.773731
 30
0.0
 10
78.278987
 20
266.773731
 30
0.0
  0
LWPOLYLINE
  5
1ce
100
AcDbEntity
  8
Layer_1
 62
7
100
AcDbPolyline
 90
3
 70
0
 10
78.278987
 20
240.677768
 30
0.0
 10
78.278987
 20
243.852768
 30
0.0
 10
87.041177
 20
243.852768
 30
0.0
  0
LWPOLYLINE
  5
1cf
100
AcDbEntity
  8
Layer_1
 62
7
100
AcDbPolyline
 90
2
 70
0
 10
87.041174
 20
269.948731
 30
0.0
 10
87.041174
 20
266.773731
 30
0.0
  0
LWPOLYLINE
  5
1d0
100
AcDbEntity
  8
Layer_1
 62
7
100
AcDbPolyline
 90
2
 70
0
 10
95.925318
 20
269.948731
 30
0.0
 10
87.041174
 20
269.948731
 30
0.0
  0
LWPOLYLINE
  5
1d1
100
AcDbEntity
  8
Layer_1
 62
7
100
AcDbPolyline
 90
3
 70
0
 10
87.041174
 20
243.852768
 30
0.0
 10
87.041174
 20
240.677768
 30
0.0
 10
95.925318
 20
240.677768
 30
0.0
  0
LWPOLYLINE
  5
1d2
100
AcDbEntity
  8
Layer_1
 62
7
100
AcDbPolyline
 90
2
 70
0
 10
95.925318
 20
266.773731
 30
0.0
 10
95.925318
 20
269.948731
 30
0.0
  0
LWPOLYLINE
  5
1d3
100
AcDbEntity
  8
Layer_1
 62
7
100
AcDbPolyline
 90
2
 70
0
 10
104.687508
 20
266.773731
 30
0.0
 10
95.925318
 20
266.773731
 30
0.0
  0
LWPOLYLINE
  5
1d4
100
AcDbEntity
  8
Layer_1
 62
7
100
AcDbPolyline
 90
3
 70
0
 10
95.925318
 20
240.677768
 30
0.0
 10
95.925318
 20
243.852768
 30
0.0
 10
104.687508
 20
243.852768
 30
0.0
  0
LWPOLYLINE
  5
1d5
100
AcDbEntity
  8
Layer_1
 62
7
100
AcDbPolyline
 90
2
 70
0
 10
104.687508
 20
269.948731
 30
0.0
 10
104.687508
 20
266.773731
 30
0.0
  0
LWPOLYLINE
  5
1d6
100
AcDbEntity
  8
Layer_1
 62
7
100
AcDbPolyline
 90
2
 70
0
 10
113.571615
 20
269.948731
 30
0.0
 10
104.687508
 20
269.948731
 30
0.0
  0
LWPOLYLINE
  5
1d7
100
AcDbEntity
  8
Layer_1
 62
7
100
AcDbPolyline
 90
3
 70
0
 10
104.687508
 20
243.852768
 30
0.0
 10
104.687508
 20
240.677768
 30
0.0
 10
113.571615
 20
240.677768
 30
0.0
  0
LWPOLYLINE
  5
1d8
100
AcDbEntity
  8
Layer_1
 62
7
100
AcDbPolyline
 90
2
 70
0
 10
113.571615
 20
266.773731
 30
0.0
 10
113.571615
 20
269.948731
 30
0.0
  0
LWPOLYLINE
  5
1d9
100
AcDbEntity
  8
Layer_1
 62
7
100
AcDbPolyline
 90
2
 70
0
 10
122.333806
 20
266.773731
 30
0.0
 10
113.571615
 20
266.773731
 30
0.0
  0
LWPOLYLINE
  5
1da
100
AcDbEntity
  8
Layer_1
 62
7
100
AcDbPolyline
 90
3
 70
0
 10
113.571615
 20
240.677768
 30
0.0
 10
113.571615
 20
243.852768
 30
0.0
 10
122.333806
 20
243.852768
 30
0.0
  0
LWPOLYLINE
  5
1db
100
AcDbEntity
  8
Layer_1
 62
7
100
AcDbPolyline
 90
2
 70
0
 10
122.333806
 20
269.948731
 30
0.0
 10
122.333806
 20
266.773731
 30
0.0
  0
LWPOLYLINE
  5
1dc
100
AcDbEntity
  8
Layer_1
 62
7
100
AcDbPolyline
 90
2
 70
0
 10
131.217949
 20
269.948731
 30
0.0
 10
122.333806
 20
269.948731
 30
0.0
  0
LWPOLYLINE
  5
1dd
100
AcDbEntity
  8
Layer_1
 62
7
100
AcDbPolyline
 90
3
 70
0
 10
122.333806
 20
243.852768
 30
0.0
 10
122.333806
 20
240.677768
 30
0.0
 10
131.217949
 20
240.677768
 30
0.0
  0
LWPOLYLINE
  5
1de
100
AcDbEntity
  8
Layer_1
 62
7
100
AcDbPolyline
 90
2
 70
0
 10
131.217949
 20
266.773731
 30
0.0
 10
131.217949
 20
269.948731
 30
0.0
  0
LWPOLYLINE
  5
1df
100
AcDbEntity
  8
Layer_1
 62
7
100
AcDbPolyline
 90
2
 70
0
 10
139.980137
 20
266.773731
 30
0.0
 10
131.217949
 20
266.773731
 30
0.0
  0
LWPOLYLINE
  5
1e0
100
AcDbEntity
  8
Layer_1
 62
7
100
AcDbPolyline
 90
3
 70
0
 10
131.217949
 20
240.677768
 30
0.0
 10
131.217949
 20
243.852768
 30
0.0
 10
139.980137
 20
243.852768
 30
0.0
  0
LWPOLYLINE
  5
1e1
100
AcDbEntity
  8
Layer_1
 62
7
100
AcDbPolyline
 90
2
 70
0
 10
139.980137
 20
269.948731
 30
0.0
 10
139.980137
 20
266.773731
 30
0.0
  0
LWPOLYLINE
  5
1e2
100
AcDbEntity
  8
Layer_1
 62
7
100
AcDbPolyline
 90
2
 70
0
 10
148.864247
 20
269.948731
 30
0.0
 10
139.980137
 20
269.948731
 30
0.0
  0
LWPOLYLINE
  5
1e3
100
AcDbEntity
  8
Layer_1
 62
7
100
AcDbPolyline
 90
3
 70
0
 10
139.980137
 20
243.852768
 30
0.0
 10
139.980137
 20
240.677768
 30
0.0
 10
148.864247
 20
240.677768
 30
0.0
  0
LWPOLYLINE
  5
1e4
100
AcDbEntity
  8
Layer_1
 62
7
100
AcDbPolyline
 90
2
 70
0
 10
148.864247
 20
266.773731
 30
0.0
 10
148.864247
 20
269.948731
 30
0.0
  0
LWPOLYLINE
  5
1e5
100
AcDbEntity
  8
Layer_1
 62
7
100
AcDbPolyline
 90
2
 70
0
 10
157.626434
 20
266.773731
 30
0.0
 10
148.864247
 20
266.773731
 30
0.0
  0
LWPOLYLINE
  5
1e6
100
AcDbEntity
  8
Layer_1
 62
7
100
AcDbPolyline
 90
3
 70
0
 10
148.864247
 20
240.677768
 30
0.0
 10
148.864247
 20
243.852768
 30
0.0
 10
157.626437
 20
243.852768
 30
0.0
  0
LWPOLYLINE
  5
1e7
100
AcDbEntity
  8
Layer_1
 62
7
100
AcDbPolyline
 90
2
 70
0
 10
157.626434
 20
269.948731
 30
0.0
 10
157.626434
 20
266.773731
 30
0.0
  0
LWPOLYLINE
  5
1e8
100
AcDbEntity
  8
Layer_1
 62
7
100
AcDbPolyline
 90
2
 70
0
 10
166.510578
 20
269.948731
 30
0.0
 10
157.626434
 20
269.948731
 30
0.0
  0
LWPOLYLINE
  5
1e9
100
AcDbEntity
  8
Layer_1
 62
7
100
AcDbPolyline
 90
3
 70
0
 10
157.626434
 20
243.852768
 30
0.0
 10
157.626434
 20
240.677768
 30
0.0
 10
166.510578
 20
240.677768
 30
0.0
  0
LWPOLYLINE
  5
1ea
100
AcDbEntity
  8
Layer_1
 62
7
100
AcDbPolyline
 90
2
 70
0
 10
166.510578
 20
266.773731
 30
0.0
 10
166.510578
 20
269.948731
 30
0.0
  0
LWPOLYLINE
  5
1eb
100
AcDbEntity
  8
Layer_1
 62
7
100
AcDbPolyline
 90
2
 70
0
 10
175.333728
 20
266.773731
 30
0.0
 10
166.510578
 20
266.773731
 30
0.0
  0
LWPOLYLINE
  5
1ec
100
AcDbEntity
  8
Layer_1
 62
7
100
AcDbPolyline
 90
3
 70
0
 10
166.510578
 20
240.677768
 30
0.0
 10
166.510578
 20
243.852768
 30
0.0
 10
175.333728
 20
243.852768
 30
0.0
  0
LWPOLYLINE
  5
1ed
100
AcDbEntity
  8
Layer_1
 62
7
100
AcDbPolyline
 90
2
 70
0
 10
175.272768
 20
240.677768
 30
0.0
 10
175.272768
 20
243.852768
 30
0.0
  0
LWPOLYLINE
  5
1ee
100
AcDbEntity
  8
Layer_1
 62
7
100
AcDbPolyline
 90
2
 70
0
 10
175.272768
 20
240.677768
 30
0.0
 10
175.333728
 20
240.677768
 30
0.0
  0
LWPOLYLINE
  5
1ef
100
AcDbEntity
  8
Layer_1
 62
7
100
AcDbPolyline
 90
2
 70
0
 10
175.272768
 20
269.948731
 30
0.0
 10
175.272768
 20
266.773731
 30
0.0
  0
LWPOLYLINE
  5
1f0
100
AcDbEntity
  8
Layer_1
 62
7
100
AcDbPolyline
 90
2
 70
0
 10
175.272768
 20
269.948731
 30
0.0
 10
175.333728
 20
269.948731
 30
0.0
  0
LWPOLYLINE
  5
1f1
100
AcDbEntity
  8
Layer_1
 62
7
100
AcDbPolyline
 90
2
 70
0
 10
175.333728
 20
240.677768
 30
0.0
 10
178.508728
 20
240.677768
 30
0.0
  0
LWPOLYLINE
  5
1f2
100
AcDbEntity
  8
Layer_1
 62
7
100
AcDbPolyline
 90
2
 70
0
 10
175.333728
 20
248.485731
 30
0.0
 10
175.333728
 20
252.996771
 30
0.0
  0
LWPOLYLINE
  5
1f3
100
AcDbEntity
  8
Layer_1
 62
7
100
AcDbPolyline
 90
2
 70
0
 10
178.508728
 20
248.485731
 30
0.0
 10
175.333728
 20
248.485731
 30
0.0
  0
LWPOLYLINE
  5
1f4
100
AcDbEntity
  8
Layer_1
 62
7
100
AcDbPolyline
 90
2
 70
0
 10
175.333728
 20
252.996771
 30
0.0
 10
178.508728
 20
252.996771
 30
0.0
  0
LWPOLYLINE
  5
1f5
100
AcDbEntity
  8
Layer_1
 62
7
100
AcDbPolyline
 90
2
 70
0
 10
175.333728
 20
257.629731
 30
0.0
 10
175.333728
 20
262.140771
 30
0.0
  0
LWPOLYLINE
  5
1f6
100
AcDbEntity
  8
Layer_1
 62
7
100
AcDbPolyline
 90
2
 70
0
 10
178.508728
 20
257.629731
 30
0.0
 10
175.333728
 20
257.629731
 30
0.0
  0
LWPOLYLINE
  5
1f7
100
AcDbEntity
  8
Layer_1
 62
7
100
AcDbPolyline
 90
2
 70
0
 10
175.333728
 20
262.140771
 30
0.0
 10
178.508728
 20
262.140771
 30
0.0
  0
LWPOLYLINE
  5
1f8
100
AcDbEntity
  8
Layer_1
 62
7
100
AcDbPolyline
 90
2
 70
0
 10
175.333728
 20
269.948731
 30
0.0
 10
178.508728
 20
269.948731
 30
0.0
  0
LWPOLYLINE
  5
1f9
100
AcDbEntity
  8
Layer_1
 62
7
100
AcDbPolyline
 90
2
 70
0
 10
178.508728
 20
240.677768
 30
0.0
 10
178.508728
 20
243.852768
 30
0.0
  0
SPLINE
  5
1fa
100
AcDbEntity
  8
Layer_1
 62
7
100
AcDbSpline
 70
8
 71
3
 72
8
 73
4
 74
0
 40
0
 40
0
 40
0
 40
0
 40
1
 40
1
 40
1
 40
1
 10
4.457768
 20
243.852768
 30
0.0
 10
0.647768
 20
243.852768
 30
0.0
 10
0.647768
 20
243.852768
 30
0.0
 10
0.647768
 20
243.852768
 30
0.0
  0
LWPOLYLINE
  5
1fb
100
AcDbEntity
  8
Layer_1
 62
7
100
AcDbPolyline
 90
2
 70
0
 10
178.508728
 20
266.773731
 30
0.0
 10
178.508728
 20
269.948731
 30
0.0
  0
LWPOLYLINE
  5
1fc
100
AcDbEntity
  8
Layer_1
 62
7
100
AcDbPolyline
 90
3
 70
0
 10
0.647768
 20
243.852768
 30
0.0
 10
0.647768
 20
266.773728
 30
0.0
 10
4.457768
 20
266.773731
 30
0.0
  0
LWPOLYLINE
  5
1fd
100
AcDbEntity
  8
Layer_1
 62
7
100
AcDbPolyline
 90
2
 70
0
 10
4.457768
 20
262.140771
 30
0.0
 10
4.457768
 20
257.629731
 30
0.0
  0
LWPOLYLINE
  5
1fe
100
AcDbEntity
  8
Layer_1
 62
7
100
AcDbPolyline
 90
2
 70
0
 10
4.457768
 20
252.996771
 30
0.0
 10
4.457768
 20
248.485731
 30
0.0
  0
LWPOLYLINE
  5
1ff
100
AcDbEntity
  8
Layer_1
 62
7
100
AcDbPolyline
 90
4
 70
0
 10
178.508728
 20
243.852771
 30
0.0
 10
182.257768
 20
243.852768
 30
0.0
 10
182.257768
 20
266.773728
 30
0.0
 10
178.508728
 20
266.773728
 30
0.0
  0
LWPOLYLINE
  5
200
100
AcDbEntity
  8
Layer_1
 62
7
100
AcDbPolyline
 90
2
 70
0
 10
178.508728
 20
262.140771
 30
0.0
 10
178.508728
 20
257.629731
 30
0.0
  0
LWPOLYLINE
  5
201
100
AcDbEntity
  8
Layer_1
 62
7
100
AcDbPolyline
 90
2
 70
0
 10
178.508728
 20
252.996771
 30
0.0
 10
178.508728
 20
248.485731
 30
0.0
  0
LWPOLYLINE
  5
202
100
AcDbEntity
  8
Layer_1
 62
7
100
AcDbPolyline
 90
2
 70
0
 10
4.457768
 20
273.697768
 30
0.0
 10
4.457768
 20
276.872768
 30
0.0
  0
LWPOLYLINE
  5
203
100
AcDbEntity
  8
Layer_1
 62
7
100
AcDbPolyline
 90
2
 70
0
 10
4.457768
 20
273.697768
 30
0.0
 10
7.632768
 20
273.697768
 30
0.0
  0
LWPOLYLINE
  5
204
100
AcDbEntity
  8
Layer_1
 62
7
100
AcDbPolyline
 90
2
 70
0
 10
7.632768
 20
281.505731
 30
0.0
 10
4.457768
 20
281.505731
 30
0.0
  0
LWPOLYLINE
  5
205
100
AcDbEntity
  8
Layer_1
 62
7
100
AcDbPolyline
 90
2
 70
0
 10
4.457768
 20
286.016771
 30
0.0
 10
7.632768
 20
286.016771
 30
0.0
  0
LWPOLYLINE
  5
206
100
AcDbEntity
  8
Layer_1
 62
7
100
AcDbPolyline
 90
2
 70
0
 10
7.632768
 20
290.649731
 30
0.0
 10
4.457768
 20
290.649731
 30
0.0
  0
LWPOLYLINE
  5
207
100
AcDbEntity
  8
Layer_1
 62
7
100
AcDbPolyline
 90
2
 70
0
 10
4.457768
 20
295.160771
 30
0.0
 10
7.632768
 20
295.160771
 30
0.0
  0
LWPOLYLINE
  5
208
100
AcDbEntity
  8
Layer_1
 62
7
100
AcDbPolyline
 90
3
 70
0
 10
4.457768
 20
299.793731
 30
0.0
 10
4.457768
 20
302.968731
 30
0.0
 10
7.632768
 20
302.968731
 30
0.0
  0
LWPOLYLINE
  5
209
100
AcDbEntity
  8
Layer_1
 62
7
100
AcDbPolyline
 90
2
 70
0
 10
16.455915
 20
299.793731
 30
0.0
 10
7.632768
 20
299.793731
 30
0.0
  0
LWPOLYLINE
  5
20a
100
AcDbEntity
  8
Layer_1
 62
7
100
AcDbPolyline
 90
2
 70
0
 10
7.632768
 20
273.697768
 30
0.0
 10
7.693728
 20
273.697768
 30
0.0
  0
LWPOLYLINE
  5
20b
100
AcDbEntity
  8
Layer_1
 62
7
100
AcDbPolyline
 90
2
 70
0
 10
7.632768
 20
276.872768
 30
0.0
 10
16.455915
 20
276.872768
 30
0.0
  0
LWPOLYLINE
  5
20c
100
AcDbEntity
  8
Layer_1
 62
7
100
AcDbPolyline
 90
2
 70
0
 10
7.632768
 20
286.016771
 30
0.0
 10
7.632768
 20
281.505731
 30
0.0
  0
LWPOLYLINE
  5
20d
100
AcDbEntity
  8
Layer_1
 62
7
100
AcDbPolyline
 90
2
 70
0
 10
7.632768
 20
295.160771
 30
0.0
 10
7.632768
 20
290.649731
 30
0.0
  0
LWPOLYLINE
  5
20e
100
AcDbEntity
  8
Layer_1
 62
7
100
AcDbPolyline
 90
2
 70
0
 10
7.632768
 20
302.968731
 30
0.0
 10
7.693728
 20
302.968731
 30
0.0
  0
LWPOLYLINE
  5
20f
100
AcDbEntity
  8
Layer_1
 62
7
100
AcDbPolyline
 90
2
 70
0
 10
7.693728
 20
273.697768
 30
0.0
 10
7.693728
 20
276.872768
 30
0.0
  0
LWPOLYLINE
  5
210
100
AcDbEntity
  8
Layer_1
 62
7
100
AcDbPolyline
 90
2
 70
0
 10
7.693728
 20
302.968731
 30
0.0
 10
7.693728
 20
299.793731
 30
0.0
  0
LWPOLYLINE
  5
211
100
AcDbEntity
  8
Layer_1
 62
7
100
AcDbPolyline
 90
2
 70
0
 10
16.455915
 20
302.968731
 30
0.0
 10
16.455915
 20
299.793731
 30
0.0
  0
LWPOLYLINE
  5
212
100
AcDbEntity
  8
Layer_1
 62
7
100
AcDbPolyline
 90
2
 70
0
 10
25.340062
 20
302.968731
 30
0.0
 10
16.455915
 20
302.968731
 30
0.0
  0
LWPOLYLINE
  5
213
100
AcDbEntity
  8
Layer_1
 62
7
100
AcDbPolyline
 90
3
 70
0
 10
16.455915
 20
276.872768
 30
0.0
 10
16.455915
 20
273.697768
 30
0.0
 10
25.340062
 20
273.697768
 30
0.0
  0
LWPOLYLINE
  5
214
100
AcDbEntity
  8
Layer_1
 62
7
100
AcDbPolyline
 90
2
 70
0
 10
25.340062
 20
299.793731
 30
0.0
 10
25.340062
 20
302.968731
 30
0.0
  0
LWPOLYLINE
  5
215
100
AcDbEntity
  8
Layer_1
 62
7
100
AcDbPolyline
 90
2
 70
0
 10
34.102249
 20
299.793731
 30
0.0
 10
25.340062
 20
299.793731
 30
0.0
  0
LWPOLYLINE
  5
216
100
AcDbEntity
  8
Layer_1
 62
7
100
AcDbPolyline
 90
3
 70
0
 10
25.340062
 20
273.697768
 30
0.0
 10
25.340062
 20
276.872768
 30
0.0
 10
34.102249
 20
276.872768
 30
0.0
  0
LWPOLYLINE
  5
217
100
AcDbEntity
  8
Layer_1
 62
7
100
AcDbPolyline
 90
2
 70
0
 10
34.102249
 20
302.968731
 30
0.0
 10
34.102249
 20
299.793731
 30
0.0
  0
LWPOLYLINE
  5
218
100
AcDbEntity
  8
Layer_1
 62
7
100
AcDbPolyline
 90
2
 70
0
 10
42.986356
 20
302.968731
 30
0.0
 10
34.102249
 20
302.968731
 30
0.0
  0
LWPOLYLINE
  5
219
100
AcDbEntity
  8
Layer_1
 62
7
100
AcDbPolyline
 90
3
 70
0
 10
34.102249
 20
276.872768
 30
0.0
 10
34.102249
 20
273.697768
 30
0.0
 10
42.986356
 20
273.697768
 30
0.0
  0
LWPOLYLINE
  5
21a
100
AcDbEntity
  8
Layer_1
 62
7
100
AcDbPolyline
 90
2
 70
0
 10
42.986356
 20
299.793731
 30
0.0
 10
42.986356
 20
302.968731
 30
0.0
  0
LWPOLYLINE
  5
21b
100
AcDbEntity
  8
Layer_1
 62
7
100
AcDbPolyline
 90
2
 70
0
 10
51.748546
 20
299.793731
 30
0.0
 10
42.986356
 20
299.793731
 30
0.0
  0
LWPOLYLINE
  5
21c
100
AcDbEntity
  8
Layer_1
 62
7
100
AcDbPolyline
 90
3
 70
0
 10
42.986356
 20
273.697768
 30
0.0
 10
42.986356
 20
276.872768
 30
0.0
 10
51.748546
 20
276.872768
 30
0.0
  0
LWPOLYLINE
  5
21d
100
AcDbEntity
  8
Layer_1
 62
7
100
AcDbPolyline
 90
2
 70
0
 10
51.748546
 20
302.968731
 30
0.0
 10
51.748546
 20
299.793731
 30
0.0
  0
LWPOLYLINE
  5
21e
100
AcDbEntity
  8
Layer_1
 62
7
100
AcDbPolyline
 90
2
 70
0
 10
60.632690
 20
302.968731
 30
0.0
 10
51.748546
 20
302.968731
 30
0.0
  0
LWPOLYLINE
  5
21f
100
AcDbEntity
  8
Layer_1
 62
7
100
AcDbPolyline
 90
3
 70
0
 10
51.748546
 20
276.872768
 30
0.0
 10
51.748546
 20
273.697768
 30
0.0
 10
60.632690
 20
273.697768
 30
0.0
  0
LWPOLYLINE
  5
220
100
AcDbEntity
  8
Layer_1
 62
7
100
AcDbPolyline
 90
2
 70
0
 10
60.632690
 20
299.793731
 30
0.0
 10
60.632690
 20
302.968731
 30
0.0
  0
LWPOLYLINE
  5
221
100
AcDbEntity
  8
Layer_1
 62
7
100
AcDbPolyline
 90
2
 70
0
 10
69.394877
 20
299.793731
 30
0.0
 10
60.632690
 20
299.793731
 30
0.0
  0
LWPOLYLINE
  5
222
100
AcDbEntity
  8
Layer_1
 62
7
100
AcDbPolyline
 90
3
 70
0
 10
60.632690
 20
273.697768
 30
0.0
 10
60.632690
 20
276.872768
 30
0.0
 10
69.394877
 20
276.872768
 30
0.0
  0
LWPOLYLINE
  5
223
100
AcDbEntity
  8
Layer_1
 62
7
100
AcDbPolyline
 90
2
 70
0
 10
69.394877
 20
302.968731
 30
0.0
 10
69.394877
 20
299.793731
 30
0.0
  0
LWPOLYLINE
  5
224
100
AcDbEntity
  8
Layer_1
 62
7
100
AcDbPolyline
 90
2
 70
0
 10
78.278987
 20
302.968731
 30
0.0
 10
69.394877
 20
302.968731
 30
0.0
  0
LWPOLYLINE
  5
225
100
AcDbEntity
  8
Layer_1
 62
7
100
AcDbPolyline
 90
3
 70
0
 10
69.394877
 20
276.872768
 30
0.0
 10
69.394877
 20
273.697768
 30
0.0
 10
78.278987
 20
273.697768
 30
0.0
  0
LWPOLYLINE
  5
226
100
AcDbEntity
  8
Layer_1
 62
7
100
AcDbPolyline
 90
2
 70
0
 10
78.278987
 20
299.793731
 30
0.0
 10
78.278987
 20
302.968731
 30
0.0
  0
LWPOLYLINE
  5
227
100
AcDbEntity
  8
Layer_1
 62
7
100
AcDbPolyline
 90
2
 70
0
 10
87.041174
 20
299.793731
 30
0.0
 10
78.278987
 20
299.793731
 30
0.0
  0
LWPOLYLINE
  5
228
100
AcDbEntity
  8
Layer_1
 62
7
100
AcDbPolyline
 90
3
 70
0
 10
78.278987
 20
273.697768
 30
0.0
 10
78.278987
 20
276.872768
 30
0.0
 10
87.041177
 20
276.872768
 30
0.0
  0
LWPOLYLINE
  5
229
100
AcDbEntity
  8
Layer_1
 62
7
100
AcDbPolyline
 90
2
 70
0
 10
87.041174
 20
302.968731
 30
0.0
 10
87.041174
 20
299.793731
 30
0.0
  0
LWPOLYLINE
  5
22a
100
AcDbEntity
  8
Layer_1
 62
7
100
AcDbPolyline
 90
2
 70
0
 10
95.925318
 20
302.968731
 30
0.0
 10
87.041174
 20
302.968731
 30
0.0
  0
LWPOLYLINE
  5
22b
100
AcDbEntity
  8
Layer_1
 62
7
100
AcDbPolyline
 90
3
 70
0
 10
87.041174
 20
276.872768
 30
0.0
 10
87.041174
 20
273.697768
 30
0.0
 10
95.925318
 20
273.697768
 30
0.0
  0
LWPOLYLINE
  5
22c
100
AcDbEntity
  8
Layer_1
 62
7
100
AcDbPolyline
 90
2
 70
0
 10
95.925318
 20
299.793731
 30
0.0
 10
95.925318
 20
302.968731
 30
0.0
  0
LWPOLYLINE
  5
22d
100
AcDbEntity
  8
Layer_1
 62
7
100
AcDbPolyline
 90
2
 70
0
 10
104.687508
 20
299.793731
 30
0.0
 10
95.925318
 20
299.793731
 30
0.0
  0
LWPOLYLINE
  5
22e
100
AcDbEntity
  8
Layer_1
 62
7
100
AcDbPolyline
 90
3
 70
0
 10
95.925318
 20
273.697768
 30
0.0
 10
95.925318
 20
276.872768
 30
0.0
 10
104.687508
 20
276.872768
 30
0.0
  0
LWPOLYLINE
  5
22f
100
AcDbEntity
  8
Layer_1
 62
7
100
AcDbPolyline
 90
2
 70
0
 10
104.687508
 20
302.968731
 30
0.0
 10
104.687508
 20
299.793731
 30
0.0
  0
LWPOLYLINE
  5
230
100
AcDbEntity
  8
Layer_1
 62
7
100
AcDbPolyline
 90
2
 70
0
 10
113.571615
 20
302.968731
 30
0.0
 10
104.687508
 20
302.968731
 30
0.0
  0
LWPOLYLINE
  5
231
100
AcDbEntity
  8
Layer_1
 62
7
100
AcDbPolyline
 90
3
 70
0
 10
104.687508
 20
276.872768
 30
0.0
 10
104.687508
 20
273.697768
 30
0.0
 10
113.571615
 20
273.697768
 30
0.0
  0
LWPOLYLINE
  5
232
100
AcDbEntity
  8
Layer_1
 62
7
100
AcDbPolyline
 90
2
 70
0
 10
113.571615
 20
299.793731
 30
0.0
 10
113.571615
 20
302.968731
 30
0.0
  0
LWPOLYLINE
  5
233
100
AcDbEntity
  8
Layer_1
 62
7
100
AcDbPolyline
 90
2
 70
0
 10
122.333806
 20
299.793731
 30
0.0
 10
113.571615
 20
299.793731
 30
0.0
  0
LWPOLYLINE
  5
234
100
AcDbEntity
  8
Layer_1
 62
7
100
AcDbPolyline
 90
3
 70
0
 10
113.571615
 20
273.697768
 30
0.0
 10
113.571615
 20
276.872768
 30
0.0
 10
122.333806
 20
276.872768
 30
0.0
  0
LWPOLYLINE
  5
235
100
AcDbEntity
  8
Layer_1
 62
7
100
AcDbPolyline
 90
2
 70
0
 10
122.333806
 20
302.968731
 30
0.0
 10
122.333806
 20
299.793731
 30
0.0
  0
LWPOLYLINE
  5
236
100
AcDbEntity
  8
Layer_1
 62
7
100
AcDbPolyline
 90
2
 70
0
 10
131.217949
 20
302.968731
 30
0.0
 10
122.333806
 20
302.968731
 30
0.0
  0
LWPOLYLINE
  5
237
100
AcDbEntity
  8
Layer_1
 62
7
100
AcDbPolyline
 90
3
 70
0
 10
122.333806
 20
276.872768
 30
0.0
 10
122.333806
 20
273.697768
 30
0.0
 10
131.217949
 20
273.697768
 30
0.0
  0
LWPOLYLINE
  5
238
100
AcDbEntity
  8
Layer_1
 62
7
100
AcDbPolyline
 90
2
 70
0
 10
131.217949
 20
299.793731
 30
0.0
 10
131.217949
 20
302.968731
 30
0.0
  0
LWPOLYLINE
  5
239
100
AcDbEntity
  8
Layer_1
 62
7
100
AcDbPolyline
 90
2
 70
0
 10
139.980137
 20
299.793731
 30
0.0
 10
131.217949
 20
299.793731
 30
0.0
  0
LWPOLYLINE
  5
23a
100
AcDbEntity
  8
Layer_1
 62
7
100
AcDbPolyline
 90
3
 70
0
 10
131.217949
 20
273.697768
 30
0.0
 10
131.217949
 20
276.872768
 30
0.0
 10
139.980137
 20
276.872768
 30
0.0
  0
LWPOLYLINE
  5
23b
100
AcDbEntity
  8
Layer_1
 62
7
100
AcDbPolyline
 90
2
 70
0
 10
139.980137
 20
302.968731
 30
0.0
 10
139.980137
 20
299.793731
 30
0.0
  0
LWPOLYLINE
  5
23c
100
AcDbEntity
  8
Layer_1
 62
7
100
AcDbPolyline
 90
2
 70
0
 10
148.864247
 20
302.968731
 30
0.0
 10
139.980137
 20
302.968731
 30
0.0
  0
LWPOLYLINE
  5
23d
100
AcDbEntity
  8
Layer_1
 62
7
100
AcDbPolyline
 90
3
 70
0
 10
139.980137
 20
276.872768
 30
0.0
 10
139.980137
 20
273.697768
 30
0.0
 10
148.864247
 20
273.697768
 30
0.0
  0
LWPOLYLINE
  5
23e
100
AcDbEntity
  8
Layer_1
 62
7
100
AcDbPolyline
 90
2
 70
0
 10
148.864247
 20
299.793731
 30
0.0
 10
148.864247
 20
302.968731
 30
0.0
  0
LWPOLYLINE
  5
23f
100
AcDbEntity
  8
Layer_1
 62
7
100
AcDbPolyline
 90
2
 70
0
 10
157.626434
 20
299.793731
 30
0.0
 10
148.864247
 20
299.793731
 30
0.0
  0
LWPOLYLINE
  5
240
100
AcDbEntity
  8
Layer_1
 62
7
100
AcDbPolyline
 90
3
 70
0
 10
148.864247
 20
273.697768
 30
0.0
 10
148.864247
 20
276.872768
 30
0.0
 10
157.626437
 20
276.872768
 30
0.0
  0
LWPOLYLINE
  5
241
100
AcDbEntity
  8
Layer_1
 62
7
100
AcDbPolyline
 90
2
 70
0
 10
157.626434
 20
302.968731
 30
0.0
 10
157.626434
 20
299.793731
 30
0.0
  0
LWPOLYLINE
  5
242
100
AcDbEntity
  8
Layer_1
 62
7
100
AcDbPolyline
 90
2
 70
0
 10
166.510578
 20
302.968731
 30
0.0
 10
157.626434
 20
302.968731
 30
0.0
  0
LWPOLYLINE
  5
243
100
AcDbEntity
  8
Layer_1
 62
7
100
AcDbPolyline
 90
3
 70
0
 10
157.626434
 20
276.872768
 30
0.0
 10
157.626434
 20
273.697768
 30
0.0
 10
166.510578
 20
273.697768
 30
0.0
  0
LWPOLYLINE
  5
244
100
AcDbEntity
  8
Layer_1
 62
7
100
AcDbPolyline
 90
2
 70
0
 10
166.510578
 20
299.793731
 30
0.0
 10
166.510578
 20
302.968731
 30
0.0
  0
LWPOLYLINE
  5
245
100
AcDbEntity
  8
Layer_1
 62
7
100
AcDbPolyline
 90
2
 70
0
 10
175.333728
 20
299.793731
 30
0.0
 10
166.510578
 20
299.793731
 30
0.0
  0
LWPOLYLINE
  5
246
100
AcDbEntity
  8
Layer_1
 62
7
100
AcDbPolyline
 90
3
 70
0
 10
166.510578
 20
273.697768
 30
0.0
 10
166.510578
 20
276.872768
 30
0.0
 10
175.333728
 20
276.872768
 30
0.0
  0
LWPOLYLINE
  5
247
100
AcDbEntity
  8
Layer_1
 62
7
100
AcDbPolyline
 90
2
 70
0
 10
175.272768
 20
273.697768
 30
0.0
 10
175.272768
 20
276.872768
 30
0.0
  0
LWPOLYLINE
  5
248
100
AcDbEntity
  8
Layer_1
 62
7
100
AcDbPolyline
 90
2
 70
0
 10
175.272768
 20
273.697768
 30
0.0
 10
175.333728
 20
273.697768
 30
0.0
  0
LWPOLYLINE
  5
249
100
AcDbEntity
  8
Layer_1
 62
7
100
AcDbPolyline
 90
2
 70
0
 10
175.272768
 20
302.968731
 30
0.0
 10
175.272768
 20
299.793731
 30
0.0
  0
LWPOLYLINE
  5
24a
100
AcDbEntity
  8
Layer_1
 62
7
100
AcDbPolyline
 90
2
 70
0
 10
175.272768
 20
302.968731
 30
0.0
 10
175.333728
 20
302.968731
 30
0.0
  0
LWPOLYLINE
  5
24b
100
AcDbEntity
  8
Layer_1
 62
7
100
AcDbPolyline
 90
2
 70
0
 10
175.333728
 20
273.697768
 30
0.0
 10
178.508728
 20
273.697768
 30
0.0
  0
LWPOLYLINE
  5
24c
100
AcDbEntity
  8
Layer_1
 62
7
100
AcDbPolyline
 90
2
 70
0
 10
175.333728
 20
281.505731
 30
0.0
 10
175.333728
 20
286.016771
 30
0.0
  0
LWPOLYLINE
  5
24d
100
AcDbEntity
  8
Layer_1
 62
7
100
AcDbPolyline
 90
2
 70
0
 10
178.508728
 20
281.505731
 30
0.0
 10
175.333728
 20
281.505731
 30
0.0
  0
LWPOLYLINE
  5
24e
100
AcDbEntity
  8
Layer_1
 62
7
100
AcDbPolyline
 90
2
 70
0
 10
175.333728
 20
286.016771
 30
0.0
 10
178.508728
 20
286.016771
 30
0.0
  0
LWPOLYLINE
  5
24f
100
AcDbEntity
  8
Layer_1
 62
7
100
AcDbPolyline
 90
2
 70
0
 10
175.333728
 20
290.649731
 30
0.0
 10
175.333728
 20
295.160771
 30
0.0
  0
LWPOLYLINE
  5
250
100
AcDbEntity
  8
Layer_1
 62
7
100
AcDbPolyline
 90
2
 70
0
 10
178.508728
 20
290.649731
 30
0.0
 10
175.333728
 20
290.649731
 30
0.0
  0
LWPOLYLINE
  5
251
100
AcDbEntity
  8
Layer_1
 62
7
100
AcDbPolyline
 90
2
 70
0
 10
175.333728
 20
295.160771
 30
0.0
 10
178.508728
 20
295.160771
 30
0.0
  0
LWPOLYLINE
  5
252
100
AcDbEntity
  8
Layer_1
 62
7
100
AcDbPolyline
 90
2
 70
0
 10
175.333728
 20
302.968731
 30
0.0
 10
178.508728
 20
302.968731
 30
0.0
  0
LWPOLYLINE
  5
253
100
AcDbEntity
  8
Layer_1
 62
7
100
AcDbPolyline
 90
2
 70
0
 10
178.508728
 20
273.697768
 30
0.0
 10
178.508728
 20
276.872768
 30
0.0
  0
SPLINE
  5
254
100
AcDbEntity
  8
Layer_1
 62
7
100
AcDbSpline
 70
8
 71
3
 72
8
 73
4
 74
0
 40
0
 40
0
 40
0
 40
0
 40
1
 40
1
 40
1
 40
1
 10
4.457768
 20
276.872768
 30
0.0
 10
0.647768
 20
276.872768
 30
0.0
 10
0.647768
 20
276.872768
 30
0.0
 10
0.647768
 20
276.872768
 30
0.0
  0
LWPOLYLINE
  5
255
100
AcDbEntity
  8
Layer_1
 62
7
100
AcDbPolyline
 90
2
 70
0
 10
178.508728
 20
299.793731
 30
0.0
 10
178.508728
 20
302.968731
 30
0.0
  0
LWPOLYLINE
  5
256
100
AcDbEntity
  8
Layer_1
 62
7
100
AcDbPolyline
 90
3
 70
0
 10
0.647768
 20
276.872768
 30
0.0
 10
0.647768
 20
299.793728
 30
0.0
 10
4.457768
 20
299.793731
 30
0.0
  0
LWPOLYLINE
  5
257
100
AcDbEntity
  8
Layer_1
 62
7
100
AcDbPolyline
 90
2
 70
0
 10
4.457768
 20
295.160771
 30
0.0
 10
4.457768
 20
290.649731
 30
0.0
  0
LWPOLYLINE
  5
258
100
AcDbEntity
  8
Layer_1
 62
7
100
AcDbPolyline
 90
2
 70
0
 10
4.457768
 20
286.016771
 30
0.0
 10
4.457768
 20
281.505731
 30
0.0
  0
LWPOLYLINE
  5
259
100
AcDbEntity
  8
Layer_1
 62
7
100
AcDbPolyline
 90
4
 70
0
 10
178.508728
 20
276.872771
 30
0.0
 10
182.257768
 20
276.872768
 30
0.0
 10
182.257768
 20
299.793728
 30
0.0
 10
178.508728
 20
299.793728
 30
0.0
  0
LWPOLYLINE
  5
25a
100
AcDbEntity
  8
Layer_1
 62
7
100
AcDbPolyline
 90
2
 70
0
 10
178.508728
 20
295.160771
 30
0.0
 10
178.508728
 20
290.649731
 30
0.0
  0
SPLINE
  5
25b
100
AcDbEntity
  8
Layer_1
 62
7
100
AcDbSpline
 70
8
 71
3
 72
8
 73
4
 74
0
 40
0
 40
0
 40
0
 40
0
 40
1
 40
1
 40
1
 40
1
 10
22.845229
 20
100.329992
 30
0.0
 10
22.845229
 20
98.935340
 30
0.0
 10
21.714641
 20
97.804752
 30
0.0
 10
20.319989
 20
97.804752
 30
0.0
  0
SPLINE
  5
25c
100
AcDbEntity
  8
Layer_1
 62
7
100
AcDbSpline
 70
8
 71
3
 72
8
 73
4
 74
0
 40
0
 40
0
 40
0
 40
0
 40
1
 40
1
 40
1
 40
1
 10
20.319989
 20
97.804752
 30
0.0
 10
19.650254
 20
97.804752
 30
0.0
 10
19.007949
 20
98.070803
 30
0.0
 10
18.534375
 20
98.544377
 30
0.0
  0
SPLINE
  5
25d
100
AcDbEntity
  8
Layer_1
 62
7
100
AcDbSpline
 70
8
 71
3
 72
8
 73
4
 74
0
 40
0
 40
0
 40
0
 40
0
 40
1
 40
1
 40
1
 40
1
 10
18.534375
 20
98.544377
 30
0.0
 10
18.060800
 20
99.017952
 30
0.0
 10
17.794749
 20
99.660256
 30
0.0
 10
17.794749
 20
100.329992
 30
0.0
  0
SPLINE
  5
25e
100
AcDbEntity
  8
Layer_1
 62
7
100
AcDbSpline
 70
8
 71
3
 72
8
 73
4
 74
0
 40
0
 40
0
 40
0
 40
0
 40
1
 40
1
 40
1
 40
1
 10
17.794749
 20
100.329992
 30
0.0
 10
17.794749
 20
100.999727
 30
0.0
 10
18.060800
 20
101.642031
 30
0.0
 10
18.534375
 20
102.115606
 30
0.0
  0
SPLINE
  5
25f
100
AcDbEntity
  8
Layer_1
 62
7
100
AcDbSpline
 70
8
 71
3
 72
8
 73
4
 74
0
 40
0
 40
0
 40
0
 40
0
 40
1
 40
1
 40
1
 40
1
 10
18.534375
 20
102.115606
 30
0.0
 10
19.007949
 20
102.589180
 30
0.0
 10
19.650254
 20
102.855231
 30
0.0
 10
20.319989
 20
102.855231
 30
0.0
  0
SPLINE
  5
260
100
AcDbEntity
  8
Layer_1
 62
7
100
AcDbSpline
 70
8
 71
3
 72
8
 73
4
 74
0
 40
0
 40
0
 40
0
 40
0
 40
1
 40
1
 40
1
 40
1
 10
20.319989
 20
102.855231
 30
0.0
 10
21.714641
 20
102.855231
 30
0.0
 10
22.845229
 20
101.724643
 30
0.0
 10
22.845229
 20
100.329992
 30
0.0
  0
LWPOLYLINE
  5
261
100
AcDbEntity
  8
Layer_1
 62
7
100
AcDbPolyline
 90
2
 70
0
 10
178.508728
 20
286.016771
 30
0.0
 10
178.508728
 20
281.505731
 30
0.0
  0
SPLINE
  5
262
100
AcDbEntity
  8
Layer_1
 62
7
100
AcDbSpline
 70
8
 71
3
 72
8
 73
4
 74
0
 40
0
 40
0
 40
0
 40
0
 40
1
 40
1
 40
1
 40
1
 10
132.703911
 20
74.929992
 30
0.0
 10
132.703912
 20
74.427690
 30
0.0
 10
132.504374
 20
73.945961
 30
0.0
 10
132.149193
 20
73.590780
 30
0.0
  0
SPLINE
  5
263
100
AcDbEntity
  8
Layer_1
 62
7
100
AcDbSpline
 70
8
 71
3
 72
8
 73
4
 74
0
 40
0
 40
0
 40
0
 40
0
 40
1
 40
1
 40
1
 40
1
 10
132.149193
 20
73.590780
 30
0.0
 10
131.794013
 20
73.235599
 30
0.0
 10
131.312284
 20
73.036061
 30
0.0
 10
130.809983
 20
73.036060
 30
0.0
  0
SPLINE
  5
264
100
AcDbEntity
  8
Layer_1
 62
7
100
AcDbSpline
 70
8
 71
3
 72
8
 73
4
 74
0
 40
0
 40
0
 40
0
 40
0
 40
1
 40
1
 40
1
 40
1
 10
130.809983
 20
73.036060
 30
0.0
 10
130.307681
 20
73.036060
 30
0.0
 10
129.825952
 20
73.235598
 30
0.0
 10
129.470771
 20
73.590779
 30
0.0
  0
SPLINE
  5
265
100
AcDbEntity
  8
Layer_1
 62
7
100
AcDbSpline
 70
8
 71
3
 72
8
 73
4
 74
0
 40
0
 40
0
 40
0
 40
0
 40
1
 40
1
 40
1
 40
1
 10
129.470771
 20
73.590779
 30
0.0
 10
129.115590
 20
73.945961
 30
0.0
 10
128.916051
 20
74.427690
 30
0.0
 10
128.916052
 20
74.929992
 30
0.0
  0
SPLINE
  5
266
100
AcDbEntity
  8
Layer_1
 62
7
100
AcDbSpline
 70
8
 71
3
 72
8
 73
4
 74
0
 40
0
 40
0
 40
0
 40
0
 40
1
 40
1
 40
1
 40
1
 10
128.916052
 20
74.929992
 30
0.0
 10
128.916052
 20
75.432293
 30
0.0
 10
129.115591
 20
75.914021
 30
0.0
 10
129.470772
 20
76.269202
 30
0.0
  0
SPLINE
  5
267
100
AcDbEntity
  8
Layer_1
 62
7
100
AcDbSpline
 70
8
 71
3
 72
8
 73
4
 74
0
 40
0
 40
0
 40
0
 40
0
 40
1
 40
1
 40
1
 40
1
 10
129.470772
 20
76.269202
 30
0.0
 10
129.825953
 20
76.624382
 30
0.0
 10
130.307682
 20
76.823920
 30
0.0
 10
130.809983
 20
76.823920
 30
0.0
  0
SPLINE
  5
268
100
AcDbEntity
  8
Layer_1
 62
7
100
AcDbSpline
 70
8
 71
3
 72
8
 73
4
 74
0
 40
0
 40
0
 40
0
 40
0
 40
1
 40
1
 40
1
 40
1
 10
130.809983
 20
76.823920
 30
0.0
 10
131.855971
 20
76.823919
 30
0.0
 10
132.703911
 20
75.975979
 30
0.0
 10
132.703911
 20
74.929992
 30
0.0
  0
LWPOLYLINE
  5
269
100
AcDbEntity
  8
Layer_1
 62
7
100
AcDbPolyline
 90
2
 70
1
 10
22.845229
 20
100.329992
 30
0.0
 10
22.845229
 20
100.329992
 30
0.0
  0
SPLINE
  5
26a
100
AcDbEntity
  8
Layer_1
 62
7
100
AcDbSpline
 70
8
 71
3
 72
8
 73
4
 74
0
 40
0
 40
0
 40
0
 40
0
 40
1
 40
1
 40
1
 40
1
 10
157.472620
 20
100.329992
 30
0.0
 10
157.472620
 20
99.995124
 30
0.0
 10
157.339594
 20
99.673972
 30
0.0
 10
157.102807
 20
99.437184
 30
0.0
  0
SPLINE
  5
26b
100
AcDbEntity
  8
Layer_1
 62
7
100
AcDbSpline
 70
8
 71
3
 72
8
 73
4
 74
0
 40
0
 40
0
 40
0
 40
0
 40
1
 40
1
 40
1
 40
1
 10
157.102807
 20
99.437184
 30
0.0
 10
156.866020
 20
99.200397
 30
0.0
 10
156.544868
 20
99.067372
 30
0.0
 10
156.210000
 20
99.067372
 30
0.0
  0
SPLINE
  5
26c
100
AcDbEntity
  8
Layer_1
 62
7
100
AcDbSpline
 70
8
 71
3
 72
8
 73
4
 74
0
 40
0
 40
0
 40
0
 40
0
 40
1
 40
1
 40
1
 40
1
 10
156.210000
 20
99.067372
 30
0.0
 10
155.875132
 20
99.067372
 30
0.0
 10
155.553980
 20
99.200397
 30
0.0
 10
155.317193
 20
99.437184
 30
0.0
  0
SPLINE
  5
26d
100
AcDbEntity
  8
Layer_1
 62
7
100
AcDbSpline
 70
8
 71
3
 72
8
 73
4
 74
0
 40
0
 40
0
 40
0
 40
0
 40
1
 40
1
 40
1
 40
1
 10
155.317193
 20
99.437184
 30
0.0
 10
155.080406
 20
99.673972
 30
0.0
 10
154.947380
 20
99.995124
 30
0.0
 10
154.947380
 20
100.329992
 30
0.0
  0
SPLINE
  5
26e
100
AcDbEntity
  8
Layer_1
 62
7
100
AcDbSpline
 70
8
 71
3
 72
8
 73
4
 74
0
 40
0
 40
0
 40
0
 40
0
 40
1
 40
1
 40
1
 40
1
 10
154.947380
 20
100.329992
 30
0.0
 10
154.947380
 20
100.664859
 30
0.0
 10
155.080406
 20
100.986011
 30
0.0
 10
155.317193
 20
101.222799
 30
0.0
  0
SPLINE
  5
26f
100
AcDbEntity
  8
Layer_1
 62
7
100
AcDbSpline
 70
8
 71
3
 72
8
 73
4
 74
0
 40
0
 40
0
 40
0
 40
0
 40
1
 40
1
 40
1
 40
1
 10
155.317193
 20
101.222799
 30
0.0
 10
155.553980
 20
101.459586
 30
0.0
 10
155.875132
 20
101.592611
 30
0.0
 10
156.210000
 20
101.592611
 30
0.0
  0
SPLINE
  5
270
100
AcDbEntity
  8
Layer_1
 62
7
100
AcDbSpline
 70
8
 71
3
 72
8
 73
4
 74
0
 40
0
 40
0
 40
0
 40
0
 40
1
 40
1
 40
1
 40
1
 10
156.210000
 20
101.592611
 30
0.0
 10
156.544868
 20
101.592611
 30
0.0
 10
156.866020
 20
101.459586
 30
0.0
 10
157.102807
 20
101.222799
 30
0.0
  0
SPLINE
  5
271
100
AcDbEntity
  8
Layer_1
 62
7
100
AcDbSpline
 70
8
 71
3
 72
8
 73
4
 74
0
 40
0
 40
0
 40
0
 40
0
 40
1
 40
1
 40
1
 40
1
 10
157.102807
 20
101.222799
 30
0.0
 10
157.339594
 20
100.986011
 30
0.0
 10
157.472620
 20
100.664859
 30
0.0
 10
157.472620
 20
100.329992
 30
0.0
  0
LWPOLYLINE
  5
272
100
AcDbEntity
  8
Layer_1
 62
7
100
AcDbPolyline
 90
2
 70
1
 10
132.703911
 20
74.929992
 30
0.0
 10
132.703911
 20
74.929992
 30
0.0
  0
SPLINE
  5
273
100
AcDbEntity
  8
Layer_1
 62
7
100
AcDbSpline
 70
8
 71
3
 72
8
 73
4
 74
0
 40
0
 40
0
 40
0
 40
0
 40
1
 40
1
 40
1
 40
1
 10
157.472620
 20
104.139992
 30
0.0
 10
157.472620
 20
103.805124
 30
0.0
 10
157.339594
 20
103.483972
 30
0.0
 10
157.102807
 20
103.247184
 30
0.0
  0
SPLINE
  5
274
100
AcDbEntity
  8
Layer_1
 62
7
100
AcDbSpline
 70
8
 71
3
 72
8
 73
4
 74
0
 40
0
 40
0
 40
0
 40
0
 40
1
 40
1
 40
1
 40
1
 10
157.102807
 20
103.247184
 30
0.0
 10
156.866020
 20
103.010397
 30
0.0
 10
156.544868
 20
102.877372
 30
0.0
 10
156.210000
 20
102.877372
 30
0.0
  0
SPLINE
  5
275
100
AcDbEntity
  8
Layer_1
 62
7
100
AcDbSpline
 70
8
 71
3
 72
8
 73
4
 74
0
 40
0
 40
0
 40
0
 40
0
 40
1
 40
1
 40
1
 40
1
 10
156.210000
 20
102.877372
 30
0.0
 10
155.875132
 20
102.877372
 30
0.0
 10
155.553980
 20
103.010397
 30
0.0
 10
155.317193
 20
103.247184
 30
0.0
  0
SPLINE
  5
276
100
AcDbEntity
  8
Layer_1
 62
7
100
AcDbSpline
 70
8
 71
3
 72
8
 73
4
 74
0
 40
0
 40
0
 40
0
 40
0
 40
1
 40
1
 40
1
 40
1
 10
155.317193
 20
103.247184
 30
0.0
 10
155.080406
 20
103.483972
 30
0.0
 10
154.947380
 20
103.805124
 30
0.0
 10
154.947380
 20
104.139992
 30
0.0
  0
SPLINE
  5
277
100
AcDbEntity
  8
Layer_1
 62
7
100
AcDbSpline
 70
8
 71
3
 72
8
 73
4
 74
0
 40
0
 40
0
 40
0
 40
0
 40
1
 40
1
 40
1
 40
1
 10
154.947380
 20
104.139992
 30
0.0
 10
154.947380
 20
104.474859
 30
0.0
 10
155.080406
 20
104.796011
 30
0.0
 10
155.317193
 20
105.032799
 30
0.0
  0
SPLINE
  5
278
100
AcDbEntity
  8
Layer_1
 62
7
100
AcDbSpline
 70
8
 71
3
 72
8
 73
4
 74
0
 40
0
 40
0
 40
0
 40
0
 40
1
 40
1
 40
1
 40
1
 10
155.317193
 20
105.032799
 30
0.0
 10
155.553980
 20
105.269586
 30
0.0
 10
155.875132
 20
105.402611
 30
0.0
 10
156.210000
 20
105.402611
 30
0.0
  0
SPLINE
  5
279
100
AcDbEntity
  8
Layer_1
 62
7
100
AcDbSpline
 70
8
 71
3
 72
8
 73
4
 74
0
 40
0
 40
0
 40
0
 40
0
 40
1
 40
1
 40
1
 40
1
 10
156.210000
 20
105.402611
 30
0.0
 10
156.544868
 20
105.402611
 30
0.0
 10
156.866020
 20
105.269586
 30
0.0
 10
157.102807
 20
105.032799
 30
0.0
  0
SPLINE
  5
27a
100
AcDbEntity
  8
Layer_1
 62
7
100
AcDbSpline
 70
8
 71
3
 72
8
 73
4
 74
0
 40
0
 40
0
 40
0
 40
0
 40
1
 40
1
 40
1
 40
1
 10
157.102807
 20
105.032799
 30
0.0
 10
157.339594
 20
104.796011
 30
0.0
 10
157.472620
 20
104.474859
 30
0.0
 10
157.472620
 20
104.139992
 30
0.0
  0
LWPOLYLINE
  5
27b
100
AcDbEntity
  8
Layer_1
 62
7
100
AcDbPolyline
 90
2
 70
1
 10
157.472620
 20
100.329992
 30
0.0
 10
157.472620
 20
100.329992
 30
0.0
  0
SPLINE
  5
27c
100
AcDbEntity
  8
Layer_1
 62
7
100
AcDbSpline
 70
8
 71
3
 72
8
 73
4
 74
0
 40
0
 40
0
 40
0
 40
0
 40
1
 40
1
 40
1
 40
1
 10
157.472620
 20
96.519992
 30
0.0
 10
157.472620
 20
96.185124
 30
0.0
 10
157.339594
 20
95.863972
 30
0.0
 10
157.102807
 20
95.627184
 30
0.0
  0
SPLINE
  5
27d
100
AcDbEntity
  8
Layer_1
 62
7
100
AcDbSpline
 70
8
 71
3
 72
8
 73
4
 74
0
 40
0
 40
0
 40
0
 40
0
 40
1
 40
1
 40
1
 40
1
 10
157.102807
 20
95.627184
 30
0.0
 10
156.866020
 20
95.390397
 30
0.0
 10
156.544868
 20
95.257372
 30
0.0
 10
156.210000
 20
95.257372
 30
0.0
  0
SPLINE
  5
27e
100
AcDbEntity
  8
Layer_1
 62
7
100
AcDbSpline
 70
8
 71
3
 72
8
 73
4
 74
0
 40
0
 40
0
 40
0
 40
0
 40
1
 40
1
 40
1
 40
1
 10
156.210000
 20
95.257372
 30
0.0
 10
155.875132
 20
95.257372
 30
0.0
 10
155.553980
 20
95.390397
 30
0.0
 10
155.317193
 20
95.627184
 30
0.0
  0
SPLINE
  5
27f
100
AcDbEntity
  8
Layer_1
 62
7
100
AcDbSpline
 70
8
 71
3
 72
8
 73
4
 74
0
 40
0
 40
0
 40
0
 40
0
 40
1
 40
1
 40
1
 40
1
 10
155.317193
 20
95.627184
 30
0.0
 10
155.080406
 20
95.863972
 30
0.0
 10
154.947380
 20
96.185124
 30
0.0
 10
154.947380
 20
96.519992
 30
0.0
  0
SPLINE
  5
280
100
AcDbEntity
  8
Layer_1
 62
7
100
AcDbSpline
 70
8
 71
3
 72
8
 73
4
 74
0
 40
0
 40
0
 40
0
 40
0
 40
1
 40
1
 40
1
 40
1
 10
154.947380
 20
96.519992
 30
0.0
 10
154.947380
 20
96.854859
 30
0.0
 10
155.080406
 20
97.176011
 30
0.0
 10
155.317193
 20
97.412799
 30
0.0
  0
SPLINE
  5
281
100
AcDbEntity
  8
Layer_1
 62
7
100
AcDbSpline
 70
8
 71
3
 72
8
 73
4
 74
0
 40
0
 40
0
 40
0
 40
0
 40
1
 40
1
 40
1
 40
1
 10
155.317193
 20
97.412799
 30
0.0
 10
155.553980
 20
97.649586
 30
0.0
 10
155.875132
 20
97.782611
 30
0.0
 10
156.210000
 20
97.782611
 30
0.0
  0
SPLINE
  5
282
100
AcDbEntity
  8
Layer_1
 62
7
100
AcDbSpline
 70
8
 71
3
 72
8
 73
4
 74
0
 40
0
 40
0
 40
0
 40
0
 40
1
 40
1
 40
1
 40
1
 10
156.210000
 20
97.782611
 30
0.0
 10
156.544868
 20
97.782611
 30
0.0
 10
156.866020
 20
97.649586
 30
0.0
 10
157.102807
 20
97.412799
 30
0.0
  0
SPLINE
  5
283
100
AcDbEntity
  8
Layer_1
 62
7
100
AcDbSpline
 70
8
 71
3
 72
8
 73
4
 74
0
 40
0
 40
0
 40
0
 40
0
 40
1
 40
1
 40
1
 40
1
 10
157.102807
 20
97.412799
 30
0.0
 10
157.339594
 20
97.176011
 30
0.0
 10
157.472620
 20
96.854859
 30
0.0
 10
157.472620
 20
96.519992
 30
0.0
  0
LWPOLYLINE
  5
284
100
AcDbEntity
  8
Layer_1
 62
7
100
AcDbPolyline
 90
2
 70
1
 10
157.472620
 20
104.139992
 30
0.0
 10
157.472620
 20
104.139992
 30
0.0
  0
SPLINE
  5
285
100
AcDbEntity
  8
Layer_1
 62
7
100
AcDbSpline
 70
8
 71
3
 72
8
 73
4
 74
0
 40
0
 40
0
 40
0
 40
0
 40
1
 40
1
 40
1
 40
1
 10
153.662620
 20
100.329992
 30
0.0
 10
153.662620
 20
99.995124
 30
0.0
 10
153.529594
 20
99.673972
 30
0.0
 10
153.292807
 20
99.437184
 30
0.0
  0
SPLINE
  5
286
100
AcDbEntity
  8
Layer_1
 62
7
100
AcDbSpline
 70
8
 71
3
 72
8
 73
4
 74
0
 40
0
 40
0
 40
0
 40
0
 40
1
 40
1
 40
1
 40
1
 10
153.292807
 20
99.437184
 30
0.0
 10
153.056020
 20
99.200397
 30
0.0
 10
152.734868
 20
99.067372
 30
0.0
 10
152.400000
 20
99.067372
 30
0.0
  0
SPLINE
  5
287
100
AcDbEntity
  8
Layer_1
 62
7
100
AcDbSpline
 70
8
 71
3
 72
8
 73
4
 74
0
 40
0
 40
0
 40
0
 40
0
 40
1
 40
1
 40
1
 40
1
 10
152.400000
 20
99.067372
 30
0.0
 10
152.065132
 20
99.067372
 30
0.0
 10
151.743980
 20
99.200397
 30
0.0
 10
151.507193
 20
99.437184
 30
0.0
  0
SPLINE
  5
288
100
AcDbEntity
  8
Layer_1
 62
7
100
AcDbSpline
 70
8
 71
3
 72
8
 73
4
 74
0
 40
0
 40
0
 40
0
 40
0
 40
1
 40
1
 40
1
 40
1
 10
151.507193
 20
99.437184
 30
0.0
 10
151.270406
 20
99.673972
 30
0.0
 10
151.137380
 20
99.995124
 30
0.0
 10
151.137380
 20
100.329992
 30
0.0
  0
SPLINE
  5
289
100
AcDbEntity
  8
Layer_1
 62
7
100
AcDbSpline
 70
8
 71
3
 72
8
 73
4
 74
0
 40
0
 40
0
 40
0
 40
0
 40
1
 40
1
 40
1
 40
1
 10
151.137380
 20
100.329992
 30
0.0
 10
151.137380
 20
100.664859
 30
0.0
 10
151.270406
 20
100.986011
 30
0.0
 10
151.507193
 20
101.222799
 30
0.0
  0
SPLINE
  5
28a
100
AcDbEntity
  8
Layer_1
 62
7
100
AcDbSpline
 70
8
 71
3
 72
8
 73
4
 74
0
 40
0
 40
0
 40
0
 40
0
 40
1
 40
1
 40
1
 40
1
 10
151.507193
 20
101.222799
 30
0.0
 10
151.743980
 20
101.459586
 30
0.0
 10
152.065132
 20
101.592611
 30
0.0
 10
152.400000
 20
101.592611
 30
0.0
  0
SPLINE
  5
28b
100
AcDbEntity
  8
Layer_1
 62
7
100
AcDbSpline
 70
8
 71
3
 72
8
 73
4
 74
0
 40
0
 40
0
 40
0
 40
0
 40
1
 40
1
 40
1
 40
1
 10
152.400000
 20
101.592611
 30
0.0
 10
152.734868
 20
101.592611
 30
0.0
 10
153.056020
 20
101.459586
 30
0.0
 10
153.292807
 20
101.222799
 30
0.0
  0
SPLINE
  5
28c
100
AcDbEntity
  8
Layer_1
 62
7
100
AcDbSpline
 70
8
 71
3
 72
8
 73
4
 74
0
 40
0
 40
0
 40
0
 40
0
 40
1
 40
1
 40
1
 40
1
 10
153.292807
 20
101.222799
 30
0.0
 10
153.529594
 20
100.986011
 30
0.0
 10
153.662620
 20
100.664859
 30
0.0
 10
153.662620
 20
100.329992
 30
0.0
  0
LWPOLYLINE
  5
28d
100
AcDbEntity
  8
Layer_1
 62
7
100
AcDbPolyline
 90
2
 70
1
 10
157.472620
 20
96.519992
 30
0.0
 10
157.472620
 20
96.519992
 30
0.0
  0
SPLINE
  5
28e
100
AcDbEntity
  8
Layer_1
 62
7
100
AcDbSpline
 70
8
 71
3
 72
8
 73
4
 74
0
 40
0
 40
0
 40
0
 40
0
 40
1
 40
1
 40
1
 40
1
 10
161.282620
 20
100.329992
 30
0.0
 10
161.282620
 20
99.995124
 30
0.0
 10
161.149594
 20
99.673972
 30
0.0
 10
160.912807
 20
99.437184
 30
0.0
  0
SPLINE
  5
28f
100
AcDbEntity
  8
Layer_1
 62
7
100
AcDbSpline
 70
8
 71
3
 72
8
 73
4
 74
0
 40
0
 40
0
 40
0
 40
0
 40
1
 40
1
 40
1
 40
1
 10
160.912807
 20
99.437184
 30
0.0
 10
160.676020
 20
99.200397
 30
0.0
 10
160.354868
 20
99.067372
 30
0.0
 10
160.020000
 20
99.067372
 30
0.0
  0
SPLINE
  5
290
100
AcDbEntity
  8
Layer_1
 62
7
100
AcDbSpline
 70
8
 71
3
 72
8
 73
4
 74
0
 40
0
 40
0
 40
0
 40
0
 40
1
 40
1
 40
1
 40
1
 10
160.020000
 20
99.067372
 30
0.0
 10
159.685132
 20
99.067372
 30
0.0
 10
159.363980
 20
99.200397
 30
0.0
 10
159.127193
 20
99.437184
 30
0.0
  0
SPLINE
  5
291
100
AcDbEntity
  8
Layer_1
 62
7
100
AcDbSpline
 70
8
 71
3
 72
8
 73
4
 74
0
 40
0
 40
0
 40
0
 40
0
 40
1
 40
1
 40
1
 40
1
 10
159.127193
 20
99.437184
 30
0.0
 10
158.890406
 20
99.673972
 30
0.0
 10
158.757380
 20
99.995124
 30
0.0
 10
158.757380
 20
100.329992
 30
0.0
  0
SPLINE
  5
292
100
AcDbEntity
  8
Layer_1
 62
7
100
AcDbSpline
 70
8
 71
3
 72
8
 73
4
 74
0
 40
0
 40
0
 40
0
 40
0
 40
1
 40
1
 40
1
 40
1
 10
158.757380
 20
100.329992
 30
0.0
 10
158.757380
 20
100.664859
 30
0.0
 10
158.890406
 20
100.986011
 30
0.0
 10
159.127193
 20
101.222799
 30
0.0
  0
SPLINE
  5
293
100
AcDbEntity
  8
Layer_1
 62
7
100
AcDbSpline
 70
8
 71
3
 72
8
 73
4
 74
0
 40
0
 40
0
 40
0
 40
0
 40
1
 40
1
 40
1
 40
1
 10
159.127193
 20
101.222799
 30
0.0
 10
159.363980
 20
101.459586
 30
0.0
 10
159.685132
 20
101.592611
 30
0.0
 10
160.020000
 20
101.592611
 30
0.0
  0
SPLINE
  5
294
100
AcDbEntity
  8
Layer_1
 62
7
100
AcDbSpline
 70
8
 71
3
 72
8
 73
4
 74
0
 40
0
 40
0
 40
0
 40
0
 40
1
 40
1
 40
1
 40
1
 10
160.020000
 20
101.592611
 30
0.0
 10
160.354868
 20
101.592611
 30
0.0
 10
160.676020
 20
101.459586
 30
0.0
 10
160.912807
 20
101.222799
 30
0.0
  0
SPLINE
  5
295
100
AcDbEntity
  8
Layer_1
 62
7
100
AcDbSpline
 70
8
 71
3
 72
8
 73
4
 74
0
 40
0
 40
0
 40
0
 40
0
 40
1
 40
1
 40
1
 40
1
 10
160.912807
 20
101.222799
 30
0.0
 10
161.149594
 20
100.986011
 30
0.0
 10
161.282620
 20
100.664859
 30
0.0
 10
161.282620
 20
100.329992
 30
0.0
  0
LWPOLYLINE
  5
296
100
AcDbEntity
  8
Layer_1
 62
7
100
AcDbPolyline
 90
2
 70
1
 10
153.662620
 20
100.329992
 30
0.0
 10
153.662620
 20
100.329992
 30
0.0
  0
LWPOLYLINE
  5
297
100
AcDbEntity
  8
Layer_1
 62
7
100
AcDbPolyline
 90
2
 70
1
 10
161.282620
 20
100.329992
 30
0.0
 10
161.282620
 20
100.329992
 30
0.0
  0
SPLINE
  5
298
100
AcDbEntity
  8
Layer_1
 62
7
100
AcDbSpline
 70
8
 71
3
 72
8
 73
4
 74
0
 40
0
 40
0
 40
0
 40
0
 40
1
 40
1
 40
1
 40
1
 10
13.607410
 20
105.409992
 30
0.0
 10
13.607411
 20
105.000916
 30
0.0
 10
13.444906
 20
104.608594
 30
0.0
 10
13.155646
 20
104.319334
 30
0.0
  0
SPLINE
  5
299
100
AcDbEntity
  8
Layer_1
 62
7
100
AcDbSpline
 70
8
 71
3
 72
8
 73
4
 74
0
 40
0
 40
0
 40
0
 40
0
 40
1
 40
1
 40
1
 40
1
 10
13.155646
 20
104.319334
 30
0.0
 10
12.866385
 20
104.030073
 30
0.0
 10
12.474064
 20
103.867568
 30
0.0
 10
12.064988
 20
103.867568
 30
0.0
  0
SPLINE
  5
29a
100
AcDbEntity
  8
Layer_1
 62
7
100
AcDbSpline
 70
8
 71
3
 72
8
 73
4
 74
0
 40
0
 40
0
 40
0
 40
0
 40
1
 40
1
 40
1
 40
1
 10
12.064988
 20
103.867568
 30
0.0
 10
11.655912
 20
103.867568
 30
0.0
 10
11.263591
 20
104.030073
 30
0.0
 10
10.974331
 20
104.319334
 30
0.0
  0
SPLINE
  5
29b
100
AcDbEntity
  8
Layer_1
 62
7
100
AcDbSpline
 70
8
 71
3
 72
8
 73
4
 74
0
 40
0
 40
0
 40
0
 40
0
 40
1
 40
1
 40
1
 40
1
 10
10.974331
 20
104.319334
 30
0.0
 10
10.685070
 20
104.608594
 30
0.0
 10
10.522566
 20
105.000916
 30
0.0
 10
10.522566
 20
105.409992
 30
0.0
  0
SPLINE
  5
29c
100
AcDbEntity
  8
Layer_1
 62
7
100
AcDbSpline
 70
8
 71
3
 72
8
 73
4
 74
0
 40
0
 40
0
 40
0
 40
0
 40
1
 40
1
 40
1
 40
1
 10
10.522566
 20
105.409992
 30
0.0
 10
10.522567
 20
106.261847
 30
0.0
 10
11.213133
 20
106.952412
 30
0.0
 10
12.064988
 20
106.952412
 30
0.0
  0
SPLINE
  5
29d
100
AcDbEntity
  8
Layer_1
 62
7
100
AcDbSpline
 70
8
 71
3
 72
8
 73
4
 74
0
 40
0
 40
0
 40
0
 40
0
 40
1
 40
1
 40
1
 40
1
 10
12.064988
 20
106.952412
 30
0.0
 10
12.916844
 20
106.952412
 30
0.0
 10
13.607409
 20
106.261847
 30
0.0
 10
13.607410
 20
105.409992
 30
0.0
  0
LWPOLYLINE
  5
29e
100
AcDbEntity
  8
Layer_1
 62
7
100
AcDbPolyline
 90
5
 70
1
 10
109.226398
 20
63.493565
 30
0.0
 10
114.293563
 20
63.493565
 30
0.0
 10
114.293563
 20
40.646404
 30
0.0
 10
109.226398
 20
40.646404
 30
0.0
 10
109.226398
 20
63.493565
 30
0.0
  0
SPLINE
  5
29f
100
AcDbEntity
  8
Layer_1
 62
7
100
AcDbSpline
 70
8
 71
3
 72
8
 73
4
 74
0
 40
0
 40
0
 40
0
 40
0
 40
1
 40
1
 40
1
 40
1
 10
172.357421
 20
105.409992
 30
0.0
 10
172.357421
 20
105.000916
 30
0.0
 10
172.194917
 20
104.608595
 30
0.0
 10
171.905657
 20
104.319334
 30
0.0
  0
SPLINE
  5
2a0
100
AcDbEntity
  8
Layer_1
 62
7
100
AcDbSpline
 70
8
 71
3
 72
8
 73
4
 74
0
 40
0
 40
0
 40
0
 40
0
 40
1
 40
1
 40
1
 40
1
 10
171.905657
 20
104.319334
 30
0.0
 10
171.616397
 20
104.030073
 30
0.0
 10
171.224076
 20
103.867568
 30
0.0
 10
170.815000
 20
103.867568
 30
0.0
  0
SPLINE
  5
2a1
100
AcDbEntity
  8
Layer_1
 62
7
100
AcDbSpline
 70
8
 71
3
 72
8
 73
4
 74
0
 40
0
 40
0
 40
0
 40
0
 40
1
 40
1
 40
1
 40
1
 10
170.815000
 20
103.867568
 30
0.0
 10
170.405924
 20
103.867568
 30
0.0
 10
170.013603
 20
104.030073
 30
0.0
 10
169.724343
 20
104.319334
 30
0.0
  0
SPLINE
  5
2a2
100
AcDbEntity
  8
Layer_1
 62
7
100
AcDbSpline
 70
8
 71
3
 72
8
 73
4
 74
0
 40
0
 40
0
 40
0
 40
0
 40
1
 40
1
 40
1
 40
1
 10
169.724343
 20
104.319334
 30
0.0
 10
169.435083
 20
104.608595
 30
0.0
 10
169.272579
 20
105.000916
 30
0.0
 10
169.272579
 20
105.409992
 30
0.0
  0
SPLINE
  5
2a3
100
AcDbEntity
  8
Layer_1
 62
7
100
AcDbSpline
 70
8
 71
3
 72
8
 73
4
 74
0
 40
0
 40
0
 40
0
 40
0
 40
1
 40
1
 40
1
 40
1
 10
169.272579
 20
105.409992
 30
0.0
 10
169.272580
 20
106.261847
 30
0.0
 10
169.963145
 20
106.952411
 30
0.0
 10
170.815000
 20
106.952412
 30
0.0
  0
SPLINE
  5
2a4
100
AcDbEntity
  8
Layer_1
 62
7
100
AcDbSpline
 70
8
 71
3
 72
8
 73
4
 74
0
 40
0
 40
0
 40
0
 40
0
 40
1
 40
1
 40
1
 40
1
 10
170.815000
 20
106.952412
 30
0.0
 10
171.666855
 20
106.952411
 30
0.0
 10
172.357420
 20
106.261847
 30
0.0
 10
172.357421
 20
105.409992
 30
0.0
  0
LWPOLYLINE
  5
2a5
100
AcDbEntity
  8
Layer_1
 62
7
100
AcDbPolyline
 90
2
 70
1
 10
13.607410
 20
105.409992
 30
0.0
 10
13.607410
 20
105.409992
 30
0.0
  0
SPLINE
  5
2a6
100
AcDbEntity
  8
Layer_1
 62
7
100
AcDbSpline
 70
8
 71
3
 72
8
 73
4
 74
0
 40
0
 40
0
 40
0
 40
0
 40
1
 40
1
 40
1
 40
1
 10
13.607410
 20
12.065003
 30
0.0
 10
13.607412
 20
11.655926
 30
0.0
 10
13.444908
 20
11.263603
 30
0.0
 10
13.155648
 20
10.974341
 30
0.0
  0
SPLINE
  5
2a7
100
AcDbEntity
  8
Layer_1
 62
7
100
AcDbSpline
 70
8
 71
3
 72
8
 73
4
 74
0
 40
0
 40
0
 40
0
 40
0
 40
1
 40
1
 40
1
 40
1
 10
13.155648
 20
10.974341
 30
0.0
 10
12.866387
 20
10.685079
 30
0.0
 10
12.474065
 20
10.522574
 30
0.0
 10
12.064988
 20
10.522574
 30
0.0
  0
SPLINE
  5
2a8
100
AcDbEntity
  8
Layer_1
 62
7
100
AcDbSpline
 70
8
 71
3
 72
8
 73
4
 74
0
 40
0
 40
0
 40
0
 40
0
 40
1
 40
1
 40
1
 40
1
 10
12.064988
 20
10.522574
 30
0.0
 10
11.655911
 20
10.522574
 30
0.0
 10
11.263589
 20
10.685079
 30
0.0
 10
10.974329
 20
10.974341
 30
0.0
  0
SPLINE
  5
2a9
100
AcDbEntity
  8
Layer_1
 62
7
100
AcDbSpline
 70
8
 71
3
 72
8
 73
4
 74
0
 40
0
 40
0
 40
0
 40
0
 40
1
 40
1
 40
1
 40
1
 10
10.974329
 20
10.974341
 30
0.0
 10
10.685068
 20
11.263603
 30
0.0
 10
10.522564
 20
11.655926
 30
0.0
 10
10.522566
 20
12.065003
 30
0.0
  0
SPLINE
  5
2aa
100
AcDbEntity
  8
Layer_1
 62
7
100
AcDbSpline
 70
8
 71
3
 72
8
 73
4
 74
0
 40
0
 40
0
 40
0
 40
0
 40
1
 40
1
 40
1
 40
1
 10
10.522566
 20
12.065003
 30
0.0
 10
10.522564
 20
12.474080
 30
0.0
 10
10.685068
 20
12.866403
 30
0.0
 10
10.974329
 20
13.155664
 30
0.0
  0
SPLINE
  5
2ab
100
AcDbEntity
  8
Layer_1
 62
7
100
AcDbSpline
 70
8
 71
3
 72
8
 73
4
 74
0
 40
0
 40
0
 40
0
 40
0
 40
1
 40
1
 40
1
 40
1
 10
10.974329
 20
13.155664
 30
0.0
 10
11.263589
 20
13.444926
 30
0.0
 10
11.655911
 20
13.607432
 30
0.0
 10
12.064988
 20
13.607432
 30
0.0
  0
SPLINE
  5
2ac
100
AcDbEntity
  8
Layer_1
 62
7
100
AcDbSpline
 70
8
 71
3
 72
8
 73
4
 74
0
 40
0
 40
0
 40
0
 40
0
 40
1
 40
1
 40
1
 40
1
 10
12.064988
 20
13.607432
 30
0.0
 10
12.474065
 20
13.607432
 30
0.0
 10
12.866387
 20
13.444926
 30
0.0
 10
13.155648
 20
13.155664
 30
0.0
  0
SPLINE
  5
2ad
100
AcDbEntity
  8
Layer_1
 62
7
100
AcDbSpline
 70
8
 71
3
 72
8
 73
4
 74
0
 40
0
 40
0
 40
0
 40
0
 40
1
 40
1
 40
1
 40
1
 10
13.155648
 20
13.155664
 30
0.0
 10
13.444908
 20
12.866403
 30
0.0
 10
13.607412
 20
12.474080
 30
0.0
 10
13.607410
 20
12.065003
 30
0.0
  0
LWPOLYLINE
  5
2ae
100
AcDbEntity
  8
Layer_1
 62
7
100
AcDbPolyline
 90
2
 70
1
 10
172.357421
 20
105.409992
 30
0.0
 10
172.357421
 20
105.409992
 30
0.0
  0
SPLINE
  5
2af
100
AcDbEntity
  8
Layer_1
 62
7
100
AcDbSpline
 70
8
 71
3
 72
8
 73
4
 74
0
 40
0
 40
0
 40
0
 40
0
 40
1
 40
1
 40
1
 40
1
 10
172.357421
 20
12.065003
 30
0.0
 10
172.357423
 20
11.655926
 30
0.0
 10
172.194919
 20
11.263603
 30
0.0
 10
171.905659
 20
10.974342
 30
0.0
  0
SPLINE
  5
2b0
100
AcDbEntity
  8
Layer_1
 62
7
100
AcDbSpline
 70
8
 71
3
 72
8
 73
4
 74
0
 40
0
 40
0
 40
0
 40
0
 40
1
 40
1
 40
1
 40
1
 10
171.905659
 20
10.974342
 30
0.0
 10
171.616399
 20
10.685080
 30
0.0
 10
171.224077
 20
10.522574
 30
0.0
 10
170.815000
 20
10.522574
 30
0.0
  0
SPLINE
  5
2b1
100
AcDbEntity
  8
Layer_1
 62
7
100
AcDbSpline
 70
8
 71
3
 72
8
 73
4
 74
0
 40
0
 40
0
 40
0
 40
0
 40
1
 40
1
 40
1
 40
1
 10
170.815000
 20
10.522574
 30
0.0
 10
170.405923
 20
10.522574
 30
0.0
 10
170.013601
 20
10.685080
 30
0.0
 10
169.724341
 20
10.974342
 30
0.0
  0
SPLINE
  5
2b2
100
AcDbEntity
  8
Layer_1
 62
7
100
AcDbSpline
 70
8
 71
3
 72
8
 73
4
 74
0
 40
0
 40
0
 40
0
 40
0
 40
1
 40
1
 40
1
 40
1
 10
169.724341
 20
10.974342
 30
0.0
 10
169.435081
 20
11.263603
 30
0.0
 10
169.272577
 20
11.655926
 30
0.0
 10
169.272579
 20
12.065003
 30
0.0
  0
SPLINE
  5
2b3
100
AcDbEntity
  8
Layer_1
 62
7
100
AcDbSpline
 70
8
 71
3
 72
8
 73
4
 74
0
 40
0
 40
0
 40
0
 40
0
 40
1
 40
1
 40
1
 40
1
 10
169.272579
 20
12.065003
 30
0.0
 10
169.272577
 20
12.474080
 30
0.0
 10
169.435081
 20
12.866402
 30
0.0
 10
169.724341
 20
13.155664
 30
0.0
  0
SPLINE
  5
2b4
100
AcDbEntity
  8
Layer_1
 62
7
100
AcDbSpline
 70
8
 71
3
 72
8
 73
4
 74
0
 40
0
 40
0
 40
0
 40
0
 40
1
 40
1
 40
1
 40
1
 10
169.724341
 20
13.155664
 30
0.0
 10
170.013601
 20
13.444926
 30
0.0
 10
170.405923
 20
13.607432
 30
0.0
 10
170.815000
 20
13.607432
 30
0.0
  0
SPLINE
  5
2b5
100
AcDbEntity
  8
Layer_1
 62
7
100
AcDbSpline
 70
8
 71
3
 72
8
 73
4
 74
0
 40
0
 40
0
 40
0
 40
0
 40
1
 40
1
 40
1
 40
1
 10
170.815000
 20
13.607432
 30
0.0
 10
171.224077
 20
13.607432
 30
0.0
 10
171.616399
 20
13.444926
 30
0.0
 10
171.905659
 20
13.155664
 30
0.0
  0
SPLINE
  5
2b6
100
AcDbEntity
  8
Layer_1
 62
7
100
AcDbSpline
 70
8
 71
3
 72
8
 73
4
 74
0
 40
0
 40
0
 40
0
 40
0
 40
1
 40
1
 40
1
 40
1
 10
171.905659
 20
13.155664
 30
0.0
 10
172.194919
 20
12.866402
 30
0.0
 10
172.357423
 20
12.474080
 30
0.0
 10
172.357421
 20
12.065003
 30
0.0
  0
LWPOLYLINE
  5
2b7
100
AcDbEntity
  8
Layer_1
 62
7
100
AcDbPolyline
 90
2
 70
1
 10
13.607410
 20
12.065003
 30
0.0
 10
13.607410
 20
12.065003
 30
0.0
  0
LWPOLYLINE
  5
2b8
100
AcDbEntity
  8
Layer_1
 62
7
100
AcDbPolyline
 90
2
 70
1
 10
172.357421
 20
12.065003
 30
0.0
 10
172.357421
 20
12.065003
 30
0.0
  0
LWPOLYLINE
  5
2b9
100
AcDbEntity
  8
Layer_1
 62
7
100
AcDbPolyline
 90
5
 70
1
 10
0.647768
 20
116.827227
 30
0.0
 10
182.232221
 20
116.827227
 30
0.0
 10
182.232221
 20
0.647759
 30
0.0
 10
0.647768
 20
0.647759
 30
0.0
 10
0.647768
 20
116.827227
 30
0.0
  0
LWPOLYLINE
  5
2ba
100
AcDbEntity
  8
Layer_1
 62
7
100
AcDbPolyline
 90
5
 70
1
 10
4.457767
 20
7.632787
 30
0.0
 10
7.632767
 20
7.632787
 30
0.0
 10
7.632767
 20
4.457787
 30
0.0
 10
4.457767
 20
4.457787
 30
0.0
 10
4.457767
 20
7.632787
 30
0.0
  0
LWPOLYLINE
  5
2bb
100
AcDbEntity
  8
Layer_1
 62
7
100
AcDbPolyline
 90
5
 70
1
 10
16.522767
 20
7.632787
 30
0.0
 10
25.279101
 20
7.632787
 30
0.0
 10
25.279101
 20
4.457787
 30
0.0
 10
16.522767
 20
4.457787
 30
0.0
 10
16.522767
 20
7.632787
 30
0.0
  0
LWPOLYLINE
  5
2bc
100
AcDbEntity
  8
Layer_1
 62
7
100
AcDbPolyline
 90
5
 70
1
 10
34.163209
 20
7.632787
 30
0.0
 10
42.925396
 20
7.632787
 30
0.0
 10
42.925396
 20
4.457787
 30
0.0
 10
34.163209
 20
4.457787
 30
0.0
 10
34.163209
 20
7.632787
 30
0.0
  0
LWPOLYLINE
  5
2bd
100
AcDbEntity
  8
Layer_1
 62
7
100
AcDbPolyline
 90
5
 70
1
 10
51.809509
 20
7.632787
 30
0.0
 10
60.571733
 20
7.632787
 30
0.0
 10
60.571733
 20
4.457787
 30
0.0
 10
51.809509
 20
4.457787
 30
0.0
 10
51.809509
 20
7.632787
 30
0.0
  0
LWPOLYLINE
  5
2be
100
AcDbEntity
  8
Layer_1
 62
7
100
AcDbPolyline
 90
5
 70
1
 10
69.455837
 20
7.632787
 30
0.0
 10
78.218027
 20
7.632787
 30
0.0
 10
78.218027
 20
4.457787
 30
0.0
 10
69.455837
 20
4.457787
 30
0.0
 10
69.455837
 20
7.632787
 30
0.0
  0
LWPOLYLINE
  5
2bf
100
AcDbEntity
  8
Layer_1
 62
7
100
AcDbPolyline
 90
5
 70
1
 10
87.102134
 20
7.632787
 30
0.0
 10
95.864358
 20
7.632787
 30
0.0
 10
95.864358
 20
4.457787
 30
0.0
 10
87.102134
 20
4.457787
 30
0.0
 10
87.102134
 20
7.632787
 30
0.0
  0
LWPOLYLINE
  5
2c0
100
AcDbEntity
  8
Layer_1
 62
7
100
AcDbPolyline
 90
5
 70
1
 10
104.748465
 20
7.632787
 30
0.0
 10
113.510650
 20
7.632787
 30
0.0
 10
113.510650
 20
4.457787
 30
0.0
 10
104.748465
 20
4.457787
 30
0.0
 10
104.748465
 20
7.632787
 30
0.0
  0
LWPOLYLINE
  5
2c1
100
AcDbEntity
  8
Layer_1
 62
7
100
AcDbPolyline
 90
5
 70
1
 10
122.394760
 20
7.632787
 30
0.0
 10
131.156984
 20
7.632787
 30
0.0
 10
131.156984
 20
4.457787
 30
0.0
 10
122.394760
 20
4.457787
 30
0.0
 10
122.394760
 20
7.632787
 30
0.0
  0
LWPOLYLINE
  5
2c2
100
AcDbEntity
  8
Layer_1
 62
7
100
AcDbPolyline
 90
5
 70
1
 10
140.041091
 20
7.632787
 30
0.0
 10
148.803281
 20
7.632787
 30
0.0
 10
148.803281
 20
4.457787
 30
0.0
 10
140.041091
 20
4.457787
 30
0.0
 10
140.041091
 20
7.632787
 30
0.0
  0
LWPOLYLINE
  5
2c3
100
AcDbEntity
  8
Layer_1
 62
7
100
AcDbPolyline
 90
5
 70
1
 10
157.687394
 20
7.632787
 30
0.0
 10
166.449621
 20
7.632787
 30
0.0
 10
166.449621
 20
4.457787
 30
0.0
 10
157.687394
 20
4.457787
 30
0.0
 10
157.687394
 20
7.632787
 30
0.0
  0
LWPOLYLINE
  5
2c4
100
AcDbEntity
  8
Layer_1
 62
7
100
AcDbPolyline
 90
5
 70
1
 10
175.333725
 20
7.632787
 30
0.0
 10
178.508725
 20
7.632787
 30
0.0
 10
178.508725
 20
4.457787
 30
0.0
 10
175.333725
 20
4.457787
 30
0.0
 10
175.333725
 20
7.632787
 30
0.0
  0
LWPOLYLINE
  5
2c5
100
AcDbEntity
  8
Layer_1
 62
7
100
AcDbPolyline
 90
5
 70
1
 10
175.333725
 20
23.361218
 30
0.0
 10
178.508725
 20
23.361218
 30
0.0
 10
178.508725
 20
15.557971
 30
0.0
 10
175.333725
 20
15.557971
 30
0.0
 10
175.333725
 20
23.361218
 30
0.0
  0
LWPOLYLINE
  5
2c6
100
AcDbEntity
  8
Layer_1
 62
7
100
AcDbPolyline
 90
5
 70
1
 10
175.333725
 20
39.089663
 30
0.0
 10
178.508725
 20
39.089663
 30
0.0
 10
178.508725
 20
31.286388
 30
0.0
 10
175.333725
 20
31.286388
 30
0.0
 10
175.333725
 20
39.089663
 30
0.0
  0
LWPOLYLINE
  5
2c7
100
AcDbEntity
  8
Layer_1
 62
7
100
AcDbPolyline
 90
5
 70
1
 10
175.333725
 20
54.818125
 30
0.0
 10
178.508725
 20
54.818125
 30
0.0
 10
178.508725
 20
47.014878
 30
0.0
 10
175.333725
 20
47.014878
 30
0.0
 10
175.333725
 20
54.818125
 30
0.0
  0
LWPOLYLINE
  5
2c8
100
AcDbEntity
  8
Layer_1
 62
7
100
AcDbPolyline
 90
5
 70
1
 10
175.333725
 20
70.546623
 30
0.0
 10
178.508725
 20
70.546623
 30
0.0
 10
178.508725
 20
62.743348
 30
0.0
 10
175.333725
 20
62.743348
 30
0.0
 10
175.333725
 20
70.546623
 30
0.0
  0
LWPOLYLINE
  5
2c9
100
AcDbEntity
  8
Layer_1
 62
7
100
AcDbPolyline
 90
5
 70
1
 10
175.333725
 20
86.275085
 30
0.0
 10
178.508725
 20
86.275085
 30
0.0
 10
178.508725
 20
78.471810
 30
0.0
 10
175.333725
 20
78.471810
 30
0.0
 10
175.333725
 20
86.275085
 30
0.0
  0
LWPOLYLINE
  5
2ca
100
AcDbEntity
  8
Layer_1
 62
7
100
AcDbPolyline
 90
5
 70
1
 10
175.333725
 20
102.003533
 30
0.0
 10
178.508725
 20
102.003533
 30
0.0
 10
178.508725
 20
94.200258
 30
0.0
 10
175.333725
 20
94.200258
 30
0.0
 10
175.333725
 20
102.003533
 30
0.0
  0
LWPOLYLINE
  5
2cb
100
AcDbEntity
  8
Layer_1
 62
7
100
AcDbPolyline
 90
5
 70
1
 10
4.457767
 20
23.361218
 30
0.0
 10
7.632767
 20
23.361218
 30
0.0
 10
7.632767
 20
15.557971
 30
0.0
 10
4.457767
 20
15.557971
 30
0.0
 10
4.457767
 20
23.361218
 30
0.0
  0
LWPOLYLINE
  5
2cc
100
AcDbEntity
  8
Layer_1
 62
7
100
AcDbPolyline
 90
5
 70
1
 10
4.457767
 20
39.089663
 30
0.0
 10
7.632767
 20
39.089663
 30
0.0
 10
7.632767
 20
31.286388
 30
0.0
 10
4.457767
 20
31.286388
 30
0.0
 10
4.457767
 20
39.089663
 30
0.0
  0
LWPOLYLINE
  5
2cd
100
AcDbEntity
  8
Layer_1
 62
7
100
AcDbPolyline
 90
5
 70
1
 10
4.457767
 20
54.818125
 30
0.0
 10
7.632767
 20
54.818125
 30
0.0
 10
7.632767
 20
47.002768
 30
0.0
 10
4.457767
 20
47.002768
 30
0.0
 10
4.457767
 20
54.818125
 30
0.0
  0
LWPOLYLINE
  5
2ce
100
AcDbEntity
  8
Layer_1
 62
7
100
AcDbPolyline
 90
5
 70
1
 10
4.457767
 20
70.546623
 30
0.0
 10
7.632767
 20
70.546623
 30
0.0
 10
7.632767
 20
62.743348
 30
0.0
 10
4.457767
 20
62.743348
 30
0.0
 10
4.457767
 20
70.546623
 30
0.0
  0
LWPOLYLINE
  5
2cf
100
AcDbEntity
  8
Layer_1
 62
7
100
AcDbPolyline
 90
5
 70
1
 10
4.457767
 20
86.275085
 30
0.0
 10
7.632767
 20
86.275085
 30
0.0
 10
7.632767
 20
78.471810
 30
0.0
 10
4.457767
 20
78.471810
 30
0.0
 10
4.457767
 20
86.275085
 30
0.0
  0
LWPOLYLINE
  5
2d0
100
AcDbEntity
  8
Layer_1
 62
7
100
AcDbPolyline
 90
5
 70
1
 10
4.457767
 20
102.003533
 30
0.0
 10
7.632767
 20
102.003533
 30
0.0
 10
7.632767
 20
94.200258
 30
0.0
 10
4.457767
 20
94.200258
 30
0.0
 10
4.457767
 20
102.003533
 30
0.0
  0
LWPOLYLINE
  5
2d1
100
AcDbEntity
  8
Layer_1
 62
7
100
AcDbPolyline
 90
5
 70
1
 10
4.457767
 20
113.103716
 30
0.0
 10
7.632767
 20
113.103716
 30
0.0
 10
7.632767
 20
109.928716
 30
0.0
 10
4.457767
 20
109.928716
 30
0.0
 10
4.457767
 20
113.103716
 30
0.0
  0
LWPOLYLINE
  5
2d2
100
AcDbEntity
  8
Layer_1
 62
7
100
AcDbPolyline
 90
5
 70
1
 10
16.516874
 20
113.103733
 30
0.0
 10
25.279101
 20
113.103733
 30
0.0
 10
25.279101
 20
109.928731
 30
0.0
 10
16.516874
 20
109.928731
 30
0.0
 10
16.516874
 20
113.103733
 30
0.0
  0
LWPOLYLINE
  5
2d3
100
AcDbEntity
  8
Layer_1
 62
7
100
AcDbPolyline
 90
5
 70
1
 10
34.163209
 20
113.103716
 30
0.0
 10
42.925396
 20
113.103716
 30
0.0
 10
42.925396
 20
109.928716
 30
0.0
 10
34.163209
 20
109.928716
 30
0.0
 10
34.163209
 20
113.103716
 30
0.0
  0
LWPOLYLINE
  5
2d4
100
AcDbEntity
  8
Layer_1
 62
7
100
AcDbPolyline
 90
5
 70
1
 10
51.809509
 20
113.103716
 30
0.0
 10
60.571733
 20
113.103716
 30
0.0
 10
60.571733
 20
109.928716
 30
0.0
 10
51.809509
 20
109.928716
 30
0.0
 10
51.809509
 20
113.103716
 30
0.0
  0
LWPOLYLINE
  5
2d5
100
AcDbEntity
  8
Layer_1
 62
7
100
AcDbPolyline
 90
5
 70
1
 10
69.455837
 20
113.103716
 30
0.0
 10
78.218027
 20
113.103716
 30
0.0
 10
78.218027
 20
109.928716
 30
0.0
 10
69.455837
 20
109.928716
 30
0.0
 10
69.455837
 20
113.103716
 30
0.0
  0
LWPOLYLINE
  5
2d6
100
AcDbEntity
  8
Layer_1
 62
7
100
AcDbPolyline
 90
5
 70
1
 10
87.102134
 20
113.103716
 30
0.0
 10
95.864358
 20
113.103716
 30
0.0
 10
95.864358
 20
109.928716
 30
0.0
 10
87.102134
 20
109.928716
 30
0.0
 10
87.102134
 20
113.103716
 30
0.0
  0
LWPOLYLINE
  5
2d7
100
AcDbEntity
  8
Layer_1
 62
7
100
AcDbPolyline
 90
5
 70
1
 10
104.748465
 20
113.103716
 30
0.0
 10
113.510650
 20
113.103716
 30
0.0
 10
113.510650
 20
109.928716
 30
0.0
 10
104.748465
 20
109.928716
 30
0.0
 10
104.748465
 20
113.103716
 30
0.0
  0
LWPOLYLINE
  5
2d8
100
AcDbEntity
  8
Layer_1
 62
7
100
AcDbPolyline
 90
5
 70
1
 10
122.394760
 20
113.103716
 30
0.0
 10
131.156984
 20
113.103716
 30
0.0
 10
131.156984
 20
109.928716
 30
0.0
 10
122.394760
 20
109.928716
 30
0.0
 10
122.394760
 20
113.103716
 30
0.0
  0
LWPOLYLINE
  5
2d9
100
AcDbEntity
  8
Layer_1
 62
7
100
AcDbPolyline
 90
5
 70
1
 10
140.041091
 20
113.103716
 30
0.0
 10
148.803281
 20
113.103716
 30
0.0
 10
148.803281
 20
109.928716
 30
0.0
 10
140.041091
 20
109.928716
 30
0.0
 10
140.041091
 20
113.103716
 30
0.0
  0
LWPOLYLINE
  5
2da
100
AcDbEntity
  8
Layer_1
 62
7
100
AcDbPolyline
 90
5
 70
1
 10
157.687394
 20
113.103716
 30
0.0
 10
166.449618
 20
113.103716
 30
0.0
 10
166.449618
 20
109.928716
 30
0.0
 10
157.687394
 20
109.928716
 30
0.0
 10
157.687394
 20
113.103716
 30
0.0
  0
LWPOLYLINE
  5
2db
100
AcDbEntity
  8
Layer_1
 62
7
100
AcDbPolyline
 90
5
 70
1
 10
175.333725
 20
113.103716
 30
0.0
 10
178.508725
 20
113.103716
 30
0.0
 10
178.508725
 20
109.928716
 30
0.0
 10
175.333725
 20
109.928716
 30
0.0
 10
175.333725
 20
113.103716
 30
0.0
  0
LWPOLYLINE
  5
2dc
100
AcDbEntity
  8
Layer_1
 62
7
100
AcDbPolyline
 90
5
 70
1
 10
13.106077
 20
85.344463
 30
0.0
 10
25.019457
 20
85.344463
 30
0.0
 10
25.019457
 20
73.431081
 30
0.0
 10
13.106077
 20
73.431081
 30
0.0
 10
13.106077
 20
85.344463
 30
0.0
  0
LWPOLYLINE
  5
2dd
100
AcDbEntity
  8
Layer_1
 62
7
100
AcDbPolyline
 90
5
 70
1
 10
148.983311
 20
52.946681
 30
0.0
 10
160.896689
 20
52.946681
 30
0.0
 10
160.896689
 20
41.033302
 30
0.0
 10
148.983311
 20
41.033302
 30
0.0
 10
148.983311
 20
52.946681
 30
0.0
  0
LWPOLYLINE
  5
2de
100
AcDbEntity
  8
Layer_1
 62
7
100
AcDbPolyline
 90
5
 70
1
 10
140.093291
 20
38.976681
 30
0.0
 10
152.006673
 20
38.976681
 30
0.0
 10
152.006673
 20
27.063302
 30
0.0
 10
140.093291
 20
27.063302
 30
0.0
 10
140.093291
 20
38.976681
 30
0.0
  0
LWPOLYLINE
  5
2df
100
AcDbEntity
  8
Layer_1
 62
7
100
AcDbPolyline
 90
5
 70
1
 10
157.873311
 20
38.976681
 30
0.0
 10
169.786689
 20
38.976681
 30
0.0
 10
169.786689
 20
27.063302
 30
0.0
 10
157.873311
 20
27.063302
 30
0.0
 10
157.873311
 20
38.976681
 30
0.0
  0
LWPOLYLINE
  5
2e0
100
AcDbEntity
  8
Layer_1
 62
7
100
AcDbPolyline
 90
5
 70
1
 10
148.983311
 20
25.006681
 30
0.0
 10
160.896689
 20
25.006681
 30
0.0
 10
160.896689
 20
13.093308
 30
0.0
 10
148.983311
 20
13.093308
 30
0.0
 10
148.983311
 20
25.006681
 30
0.0
  0
ENDSEC
  0
SECTION
  2
OBJECTS
  0
DICTIONARY
  5
C
330
0
100
AcDbDictionary
  3
ACAD_GROUP
350
D
  3
ACAD_MLINESTYLE
350
17
  0
DICTIONARY
  5
D
330
C
100
AcDbDictionary
  0
DICTIONARY
  5
1A
330
C
100
AcDbDictionary
  0
DICTIONARY
  5
17
330
C
100
AcDbDictionary
  3
STANDARD
350
18
  0
DICTIONARY
  5
19
330
C
100
AcDbDictionary
  0
ENDSEC
  0
EOF
